<?xml version="1.0" encoding="utf-8"?>
<!-- Generator: Adobe Illustrator 21.1.0, SVG Export Plug-In . SVG Version: 6.00 Build 0)  -->
<svg version="1.1" id="Layer_1" xmlns="http://www.w3.org/2000/svg" xmlns:xlink="http://www.w3.org/1999/xlink" x="0px" y="0px"
	 viewBox="0 0 792 144" style="enable-background:new 0 0 792 144;" xml:space="preserve">
<style type="text/css">
	.st0{fill:#444444;}
</style>
<g>
	<path class="st0" d="M56.2,125.6c-9.4-5.1-16.7-12.2-22.1-21.2c-5.3-9-8-19.1-8-30.3c0-11.1,2.7-21.2,8-30.3
		c5.3-9,12.7-16.1,22.1-21.2s19.9-7.7,31.6-7.7c11.6,0,22,2.6,31.4,7.7s16.7,12.2,22,21.2s7.9,19.1,7.9,30.3s-2.6,21.4-7.9,30.3
		c-5.3,9-12.6,16-22,21.2c-9.4,5.1-19.8,7.7-31.4,7.7C76.1,133.3,65.6,130.7,56.2,125.6z M110.7,112.8c6.8-3.9,12.1-9.2,16-16
		c3.9-6.8,5.9-14.4,5.9-22.7c0-8.4-2-16-5.9-22.7c-3.9-6.8-9.3-12.1-16-16c-6.8-3.9-14.4-5.8-22.9-5.8s-16.2,1.9-23.1,5.8
		c-6.9,3.9-12.3,9.2-16.2,16s-5.9,14.4-5.9,22.7c0,8.4,2,16,5.9,22.7c3.9,6.8,9.3,12.1,16.2,16s14.6,5.8,23.1,5.8
		S103.9,116.6,110.7,112.8z"/>
	<path class="st0" d="M194.9,50c5.6-3.4,12.5-5,20.5-5v8.1l-2-0.2c-9.6,0-17.1,3-22.5,9s-8.1,14.4-8.1,25v45h-8.3V45.7h7.9v18.8
		C185.1,58.2,189.3,53.4,194.9,50z"/>
	<path class="st0" d="M237.6,22.8c-1.3-1.3-2-2.8-2-4.7c0-1.9,0.7-3.5,2-4.8s2.9-2,4.8-2c1.9,0,3.5,0.6,4.8,1.9c1.3,1.3,2,2.8,2,4.7
		c0,1.9-0.7,3.5-2,4.8c-1.3,1.3-2.9,2-4.8,2C240.5,24.7,238.9,24,237.6,22.8z M238.2,45.7h8.3V132h-8.3V45.7z"/>
	<path class="st0" d="M354.3,90.8H280c0.2,6.7,1.9,12.7,5.1,17.9s7.5,9.3,13,12.2s11.6,4.3,18.4,4.3c5.6,0,10.8-1,15.6-3.1
		c4.8-2,8.8-5,12-9l4.8,5.5c-3.7,4.5-8.5,8-14.1,10.4c-5.7,2.4-11.8,3.6-18.4,3.6c-8.6,0-16.3-1.9-23-5.6c-6.7-3.7-12-8.9-15.8-15.5
		s-5.7-14.2-5.7-22.7c0-8.4,1.8-15.9,5.4-22.6s8.5-11.9,14.8-15.6s13.3-5.6,21.2-5.6c7.8,0,14.9,1.8,21.1,5.5s11.1,8.8,14.7,15.5
		c3.6,6.6,5.4,14.1,5.4,22.5L354.3,90.8z M296.9,56.3c-4.9,2.7-8.7,6.5-11.7,11.4c-2.9,4.9-4.6,10.4-5,16.6h66.1
		c-0.3-6.2-2-11.7-5-16.5s-6.9-8.7-11.7-11.4c-4.9-2.8-10.3-4.1-16.4-4.1C307.2,52.3,301.8,53.6,296.9,56.3z"/>
	<path class="st0" d="M447.9,54.4c6.3,6.3,9.4,15.3,9.4,27.1V132H449V82.2c0-9.7-2.5-17.1-7.4-22.2s-11.8-7.6-20.6-7.6
		c-10.1,0-18.1,3-24,9.1c-5.8,6.1-8.8,14.2-8.8,24.5v46h-8.3V45.7h7.9v18.7c3-6.1,7.4-10.8,13.3-14.2c5.9-3.4,12.9-5.1,20.9-5.1
		C433,45,441.6,48.1,447.9,54.4z"/>
	<path class="st0" d="M534.2,126.5c-2.1,2-4.7,3.5-7.9,4.5c-3.1,1-6.4,1.6-9.8,1.6c-7.5,0-13.3-2.1-17.4-6.2
		c-4.1-4.1-6.1-9.9-6.1-17.3V52.8h-15.9v-7.1H493V26.8h8.3v18.8h27.4v7.1h-27.4v55.6c0,5.6,1.3,9.9,4.1,12.8c2.7,2.9,6.7,4.4,12,4.4
		c5.4,0,9.9-1.6,13.4-4.8L534.2,126.5z"/>
</g>
<g>
	<polygon class="st0" points="87.5,39.3 83.3,69.4 87.5,73.5 91.8,69.2 	"/>
	<circle class="st0" cx="87.5" cy="75.6" r="4.2"/>
	<polygon class="st0" points="114.9,66.1 92.4,70.6 90.5,74.7 94.6,76.6 	"/>
</g>
<path class="st0" d="M614.3,64.5l-11.6,33.7h-1l-11.3-32.4l-11.3,32.4h-1l-11.6-33.7h1.1l11,32.2l11.3-32.2h1l11.3,32.3l11-32.3
	H614.3z"/>
<path class="st0" d="M634,75.4c1.5,1.5,2.3,3.7,2.3,6.5v16.3h-1V93c-0.8,1.7-2,3-3.6,4s-3.6,1.4-5.9,1.4c-2.8,0-4.9-0.6-6.5-1.9
	c-1.6-1.3-2.3-3-2.3-5.1c0-2,0.7-3.6,2.1-4.8c1.4-1.2,3.7-1.9,6.8-1.9h9.4V82c0-2.6-0.7-4.6-2-5.9c-1.3-1.3-3.3-2-5.9-2
	c-1.8,0-3.5,0.3-5,0.9c-1.6,0.6-2.9,1.5-4,2.5l-0.7-0.7c1.2-1.2,2.6-2.1,4.3-2.7c1.7-0.7,3.5-1,5.4-1
	C630.2,73.2,632.5,73.9,634,75.4z M635.3,91.1v-5.5h-9.5c-2.7,0-4.7,0.5-6,1.5s-1.9,2.4-1.9,4.2c0,1.9,0.7,3.4,2.1,4.5
	c1.4,1.1,3.3,1.6,5.8,1.6C630.4,97.5,633.6,95.4,635.3,91.1z"/>
<path class="st0" d="M658.3,96.6c-0.5,0.6-1.3,1-2.1,1.3c-0.9,0.3-1.8,0.5-2.7,0.5c-1.9,0-3.4-0.6-4.5-1.7c-1-1.1-1.6-2.6-1.6-4.5
	v-18h-4.8v-0.9h4.8v-5.4h1v5.4h8.4v0.9h-8.4V92c0,1.8,0.4,3.1,1.3,4c0.9,0.9,2.1,1.4,3.8,1.4s3.1-0.5,4.1-1.5L658.3,96.6z"/>
<path class="st0" d="M667.8,96.8c-1.9-1.1-3.3-2.6-4.4-4.5c-1-1.9-1.6-4.1-1.6-6.5s0.5-4.6,1.6-6.5c1-1.9,2.5-3.4,4.4-4.5
	s4-1.6,6.3-1.6c1.8,0,3.5,0.3,5.1,1s2.9,1.7,3.9,3l-0.7,0.7c-0.9-1.3-2.1-2.2-3.6-2.9c-1.4-0.6-3-1-4.7-1c-2.2,0-4.1,0.5-5.8,1.5
	c-1.7,1-3.1,2.4-4,4.1c-1,1.8-1.4,3.8-1.4,6.1s0.5,4.3,1.4,6.1c1,1.8,2.3,3.2,4,4.1c1.7,1,3.7,1.5,5.8,1.5c1.7,0,3.3-0.3,4.7-1
	c1.4-0.6,2.6-1.6,3.6-2.9l0.7,0.7c-1,1.3-2.3,2.3-3.9,3c-1.6,0.7-3.3,1-5.1,1C671.8,98.4,669.7,97.9,667.8,96.8z"/>
<path class="st0" d="M709.4,75.9c1.8,1.8,2.7,4.3,2.7,7.7v14.7h-1V83.6c0-3.1-0.8-5.4-2.3-7c-1.6-1.6-3.8-2.4-6.6-2.4
	c-3.2,0-5.8,1-7.7,2.9c-1.9,1.9-2.8,4.5-2.8,7.7v13.5h-1V62.5h1V80c0.8-2.1,2.1-3.8,3.9-5c1.8-1.2,4-1.8,6.6-1.8
	C705.1,73.2,707.6,74.1,709.4,75.9z"/>
<path class="st0" d="M743,85.8h-22.2c0,2.3,0.5,4.3,1.5,6.1s2.4,3.2,4.1,4.2c1.8,1,3.7,1.5,5.9,1.5c1.7,0,3.3-0.3,4.8-1
	s2.7-1.6,3.7-2.9l0.7,0.7c-1.1,1.3-2.4,2.3-4,3s-3.3,1.1-5.1,1.1c-2.4,0-4.5-0.5-6.4-1.6s-3.4-2.6-4.4-4.5c-1.1-1.9-1.6-4.1-1.6-6.5
	s0.5-4.6,1.5-6.5s2.4-3.4,4.1-4.5c1.8-1.1,3.7-1.6,5.9-1.6s4.1,0.5,5.9,1.6c1.8,1.1,3.2,2.5,4.2,4.4s1.5,4,1.5,6.4v0.1H743z
	 M726.1,75.5c-1.6,0.9-2.8,2.2-3.8,3.9c-0.9,1.6-1.5,3.5-1.6,5.5H742c-0.1-2-0.6-3.9-1.6-5.5s-2.2-2.9-3.8-3.9
	c-1.6-0.9-3.3-1.4-5.3-1.4C729.5,74.1,727.7,74.6,726.1,75.5z"/>
<path class="st0" d="M751.2,97.4c-1.8-0.6-3.1-1.5-4.1-2.5l0.6-0.8c1,0.9,2.3,1.7,3.9,2.3c1.6,0.6,3.4,0.9,5.3,0.9
	c2.8,0,4.9-0.5,6.3-1.5c1.3-1,2-2.3,2-4.1c0-1.3-0.4-2.2-1.1-3c-0.7-0.7-1.6-1.3-2.7-1.6c-1-0.3-2.5-0.7-4.3-1
	c-2-0.4-3.5-0.7-4.7-1.1c-1.2-0.4-2.2-1-3-1.9s-1.2-2.1-1.2-3.7c0-1.8,0.7-3.3,2.2-4.6s3.7-1.9,6.6-1.9c1.5,0,3.1,0.2,4.6,0.7
	s2.7,1.1,3.7,1.9l-0.6,0.8c-1-0.8-2.1-1.4-3.5-1.8c-1.3-0.4-2.7-0.6-4.2-0.6c-2.6,0-4.6,0.5-5.9,1.5c-1.3,1-2,2.3-2,4
	c0,1.3,0.4,2.4,1.1,3.1s1.7,1.3,2.7,1.7c1.1,0.4,2.5,0.7,4.3,1c2,0.4,3.5,0.8,4.7,1.2s2.1,1,2.9,1.9c0.8,0.9,1.2,2,1.2,3.5
	c0,2-0.8,3.5-2.4,4.7c-1.6,1.2-3.9,1.8-6.9,1.8C754.8,98.4,753,98.1,751.2,97.4z"/>
</svg>
