<?xml version="1.0" encoding="utf-8"?>
<!-- Generator: Adobe Illustrator 21.1.0, SVG Export Plug-In . SVG Version: 6.00 Build 0)  -->
<svg version="1.1" id="Layer_1" xmlns="http://www.w3.org/2000/svg" xmlns:xlink="http://www.w3.org/1999/xlink" x="0px" y="0px"
	 viewBox="0 0 792 288" style="enable-background:new 0 0 792 288;" xml:space="preserve">
<style type="text/css">
	.st0{fill:#FFFFFF;}
</style>
<g>
	<path class="st0" d="M58.2,170.6c-9.4-5.1-16.7-12.2-22.1-21.2c-5.3-9-8-19.1-8-30.3c0-11.1,2.7-21.2,8-30.3
		c5.3-9,12.7-16.1,22.1-21.2c9.4-5.1,19.9-7.7,31.6-7.7c11.6,0,22,2.6,31.4,7.7c9.4,5.1,16.7,12.2,22,21.2c5.3,9,7.9,19.1,7.9,30.3
		s-2.6,21.4-7.9,30.3c-5.3,9-12.6,16-22,21.2c-9.4,5.1-19.8,7.7-31.4,7.7C78.1,178.3,67.6,175.7,58.2,170.6z M112.7,157.8
		c6.8-3.9,12.1-9.2,16-16c3.9-6.8,5.9-14.4,5.9-22.7c0-8.4-2-16-5.9-22.7c-3.9-6.8-9.3-12.1-16-16c-6.8-3.9-14.4-5.8-22.9-5.8
		c-8.5,0-16.2,1.9-23.1,5.8c-6.9,3.9-12.3,9.2-16.2,16c-3.9,6.8-5.9,14.4-5.9,22.7c0,8.4,2,16,5.9,22.7c3.9,6.8,9.3,12.1,16.2,16
		c6.9,3.9,14.6,5.8,23.1,5.8C98.3,163.6,105.9,161.6,112.7,157.8z"/>
	<path class="st0" d="M196.9,95c5.6-3.4,12.5-5,20.5-5v8.1l-2-0.2c-9.6,0-17.1,3-22.5,9c-5.4,6-8.1,14.4-8.1,25v45h-8.3V90.7h7.9
		v18.8C187.1,103.2,191.3,98.4,196.9,95z"/>
	<path class="st0" d="M239.6,67.8c-1.3-1.3-2-2.8-2-4.7c0-1.9,0.7-3.5,2-4.8c1.3-1.3,2.9-2,4.8-2c1.9,0,3.5,0.6,4.8,1.9
		c1.3,1.3,2,2.8,2,4.7c0,1.9-0.7,3.5-2,4.8c-1.3,1.3-2.9,2-4.8,2C242.5,69.7,240.9,69,239.6,67.8z M240.2,90.7h8.3V177h-8.3V90.7z"
		/>
	<path class="st0" d="M356.3,135.8H282c0.2,6.7,1.9,12.7,5.1,17.9c3.2,5.2,7.5,9.3,13,12.2c5.5,2.9,11.6,4.3,18.4,4.3
		c5.6,0,10.8-1,15.6-3.1c4.8-2,8.8-5,12-9l4.8,5.5c-3.7,4.5-8.5,8-14.1,10.4c-5.7,2.4-11.8,3.6-18.4,3.6c-8.6,0-16.3-1.9-23-5.6
		c-6.7-3.7-12-8.9-15.8-15.5s-5.7-14.2-5.7-22.7c0-8.4,1.8-15.9,5.4-22.6c3.6-6.7,8.5-11.9,14.8-15.6c6.3-3.7,13.3-5.6,21.2-5.6
		c7.8,0,14.9,1.8,21.1,5.5c6.2,3.7,11.1,8.8,14.7,15.5c3.6,6.6,5.4,14.1,5.4,22.5L356.3,135.8z M298.9,101.3
		c-4.9,2.7-8.7,6.5-11.7,11.4c-2.9,4.9-4.6,10.4-5,16.6h66.1c-0.3-6.2-2-11.7-5-16.5c-3-4.8-6.9-8.7-11.7-11.4
		c-4.9-2.8-10.3-4.1-16.4-4.1C309.2,97.3,303.8,98.6,298.9,101.3z"/>
	<path class="st0" d="M449.9,99.4c6.3,6.3,9.4,15.3,9.4,27.1V177H451v-49.8c0-9.7-2.5-17.1-7.4-22.2c-4.9-5.1-11.8-7.6-20.6-7.6
		c-10.1,0-18.1,3-24,9.1c-5.8,6.1-8.8,14.2-8.8,24.5v46h-8.3V90.7h7.9v18.7c3-6.1,7.4-10.8,13.3-14.2c5.9-3.4,12.9-5.1,20.9-5.1
		C435,90,443.6,93.1,449.9,99.4z"/>
	<path class="st0" d="M536.2,171.5c-2.1,2-4.7,3.5-7.9,4.5c-3.1,1-6.4,1.6-9.8,1.6c-7.5,0-13.3-2.1-17.4-6.2
		c-4.1-4.1-6.1-9.9-6.1-17.3V97.8h-15.9v-7.1H495V71.8h8.3v18.8h27.4v7.1h-27.4v55.6c0,5.6,1.3,9.9,4.1,12.8c2.7,2.9,6.7,4.4,12,4.4
		c5.4,0,9.9-1.6,13.4-4.8L536.2,171.5z"/>
</g>
<g>
	<polygon class="st0" points="89.5,84.3 85.3,114.4 89.5,118.5 93.8,114.2 	"/>
	<circle class="st0" cx="89.5" cy="120.6" r="4.2"/>
	<polygon class="st0" points="116.9,111.1 94.4,115.6 92.5,119.7 96.6,121.6 	"/>
</g>
<path class="st0" d="M616.3,116.5l-11.6,33.7h-1l-11.3-32.4l-11.3,32.4h-1l-11.6-33.7h1.1l11,32.2l11.3-32.2h1l11.3,32.3l11-32.3
	H616.3z"/>
<path class="st0" d="M636,127.4c1.5,1.5,2.3,3.7,2.3,6.5v16.3h-1V145c-0.8,1.7-2,3-3.6,4c-1.6,1-3.6,1.4-5.9,1.4
	c-2.8,0-4.9-0.6-6.5-1.9c-1.6-1.3-2.3-3-2.3-5.1c0-2,0.7-3.6,2.1-4.8c1.4-1.2,3.7-1.9,6.8-1.9h9.4V134c0-2.6-0.7-4.6-2-5.9
	c-1.3-1.3-3.3-2-5.9-2c-1.8,0-3.5,0.3-5,0.9c-1.6,0.6-2.9,1.5-4,2.5l-0.7-0.7c1.2-1.2,2.6-2.1,4.3-2.7c1.7-0.7,3.5-1,5.4-1
	C632.2,125.2,634.5,125.9,636,127.4z M637.3,143.1v-5.5h-9.5c-2.7,0-4.7,0.5-6,1.5c-1.3,1-1.9,2.4-1.9,4.2c0,1.9,0.7,3.4,2.1,4.5
	c1.4,1.1,3.3,1.6,5.8,1.6C632.4,149.5,635.6,147.4,637.3,143.1z"/>
<path class="st0" d="M660.3,148.6c-0.5,0.6-1.3,1-2.1,1.3c-0.9,0.3-1.8,0.5-2.7,0.5c-1.9,0-3.4-0.6-4.5-1.7c-1-1.1-1.6-2.6-1.6-4.5
	v-18h-4.8v-0.9h4.8v-5.4h1v5.4h8.4v0.9h-8.4V144c0,1.8,0.4,3.1,1.3,4c0.9,0.9,2.1,1.4,3.8,1.4s3.1-0.5,4.1-1.5L660.3,148.6z"/>
<path class="st0" d="M669.8,148.8c-1.9-1.1-3.3-2.6-4.4-4.5c-1-1.9-1.6-4.1-1.6-6.5c0-2.4,0.5-4.6,1.6-6.5c1-1.9,2.5-3.4,4.4-4.5
	c1.9-1.1,4-1.6,6.3-1.6c1.8,0,3.5,0.3,5.1,1c1.6,0.7,2.9,1.7,3.9,3l-0.7,0.7c-0.9-1.3-2.1-2.2-3.6-2.9c-1.4-0.6-3-1-4.7-1
	c-2.2,0-4.1,0.5-5.8,1.5c-1.7,1-3.1,2.4-4,4.1c-1,1.8-1.4,3.8-1.4,6.1c0,2.3,0.5,4.3,1.4,6.1c1,1.8,2.3,3.2,4,4.1
	c1.7,1,3.7,1.5,5.8,1.5c1.7,0,3.3-0.3,4.7-1c1.4-0.6,2.6-1.6,3.6-2.9l0.7,0.7c-1,1.3-2.3,2.3-3.9,3c-1.6,0.7-3.3,1-5.1,1
	C673.8,150.4,671.7,149.9,669.8,148.8z"/>
<path class="st0" d="M711.4,127.9c1.8,1.8,2.7,4.3,2.7,7.7v14.7h-1v-14.7c0-3.1-0.8-5.4-2.3-7c-1.6-1.6-3.8-2.4-6.6-2.4
	c-3.2,0-5.8,1-7.7,2.9c-1.9,1.9-2.8,4.5-2.8,7.7v13.5h-1v-35.8h1V132c0.8-2.1,2.1-3.8,3.9-5c1.8-1.2,4-1.8,6.6-1.8
	C707.1,125.2,709.6,126.1,711.4,127.9z"/>
<path class="st0" d="M745,137.8h-22.2c0,2.3,0.5,4.3,1.5,6.1c1,1.8,2.4,3.2,4.1,4.2c1.8,1,3.7,1.5,5.9,1.5c1.7,0,3.3-0.3,4.8-1
	c1.5-0.7,2.7-1.6,3.7-2.9l0.7,0.7c-1.1,1.3-2.4,2.3-4,3s-3.3,1.1-5.1,1.1c-2.4,0-4.5-0.5-6.4-1.6c-1.9-1.1-3.4-2.6-4.4-4.5
	c-1.1-1.9-1.6-4.1-1.6-6.5s0.5-4.6,1.5-6.5c1-1.9,2.4-3.4,4.1-4.5c1.8-1.1,3.7-1.6,5.9-1.6c2.2,0,4.1,0.5,5.9,1.6
	c1.8,1.1,3.2,2.5,4.2,4.4c1,1.9,1.5,4,1.5,6.4V137.8z M728.1,127.5c-1.6,0.9-2.8,2.2-3.8,3.9c-0.9,1.6-1.5,3.5-1.6,5.5H744
	c-0.1-2-0.6-3.9-1.6-5.5c-1-1.6-2.2-2.9-3.8-3.9c-1.6-0.9-3.3-1.4-5.3-1.4C731.5,126.1,729.7,126.6,728.1,127.5z"/>
<path class="st0" d="M753.2,149.4c-1.8-0.6-3.1-1.5-4.1-2.5l0.6-0.8c1,0.9,2.3,1.7,3.9,2.3c1.6,0.6,3.4,0.9,5.3,0.9
	c2.8,0,4.9-0.5,6.3-1.5c1.3-1,2-2.3,2-4.1c0-1.3-0.4-2.2-1.1-3c-0.7-0.7-1.6-1.3-2.7-1.6c-1-0.3-2.5-0.7-4.3-1
	c-2-0.4-3.5-0.7-4.7-1.1c-1.2-0.4-2.2-1-3-1.9c-0.8-0.9-1.2-2.1-1.2-3.7c0-1.8,0.7-3.3,2.2-4.6s3.7-1.9,6.6-1.9
	c1.5,0,3.1,0.2,4.6,0.7c1.5,0.5,2.7,1.1,3.7,1.9l-0.6,0.8c-1-0.8-2.1-1.4-3.5-1.8c-1.3-0.4-2.7-0.6-4.2-0.6c-2.6,0-4.6,0.5-5.9,1.5
	c-1.3,1-2,2.3-2,4c0,1.3,0.4,2.4,1.1,3.1s1.7,1.3,2.7,1.7c1.1,0.4,2.5,0.7,4.3,1c2,0.4,3.5,0.8,4.7,1.2c1.2,0.4,2.1,1,2.9,1.9
	c0.8,0.9,1.2,2,1.2,3.5c0,2-0.8,3.5-2.4,4.7c-1.6,1.2-3.9,1.8-6.9,1.8C756.8,150.4,755,150.1,753.2,149.4z"/>
</svg>
