<?xml version="1.0" encoding="UTF-8"?>
<svg width="120px" height="169px" viewBox="0 0 120 169" version="1.1" xmlns="http://www.w3.org/2000/svg" xmlns:xlink="http://www.w3.org/1999/xlink">
    <!-- Generator: Sketch 46 (44423) - http://www.bohemiancoding.com/sketch -->
    <title>Group 2@2x</title>
    <desc>Created with Sketch.</desc>
    <defs></defs>
    <g id="Page-1" stroke="none" stroke-width="1" fill="none" fill-rule="evenodd">
        <g id="Desktop" transform="translate(-51.000000, -520.000000)">
            <g id="Group-2" transform="translate(56.000000, 525.000000)">
                <circle id="Oval" stroke="#0D73E0" stroke-width="10" cx="55" cy="55" r="55"></circle>
                <text id="DISCOVERY" font-family="NewsGothicMT-Bold, News Gothic MT" font-size="18" font-weight="bold" fill="#005092">
                    <tspan x="4.41699219" y="163">DISCOVERY</tspan>
                </text>
                <g id="idea-(2)" transform="translate(24.000000, 26.000000)" fill-rule="nonzero" fill="#005092">
                    <path d="M6.71695312,19.4712891 L1.49367187,19.4712891 C0.691992187,19.4712891 0.0421875,20.1210937 0.0421875,20.9227734 C0.0421875,21.7244531 0.691992187,22.3742578 1.49367187,22.3742578 L6.71683594,22.3742578 C7.51863281,22.3742578 8.1684375,21.7244531 8.1684375,20.9227734 C8.1684375,20.1210937 7.51863281,19.4712891 6.71695312,19.4712891 Z" id="Shape"></path>
                    <path d="M58.5059766,19.4712891 L53.2826953,19.4712891 C52.4811328,19.4712891 51.8312109,20.1210937 51.8312109,20.9227734 C51.8312109,21.7244531 52.4811328,22.3742578 53.2826953,22.3742578 L58.5059766,22.3742578 C59.3075391,22.3742578 59.9574609,21.7244531 59.9574609,20.9227734 C59.9574609,20.1210937 59.3075391,19.4712891 58.5059766,19.4712891 Z" id="Shape"></path>
                    <path d="M12.6969141,38.2255078 C12.1300781,37.6586719 11.2110938,37.6586719 10.6441406,38.2255078 L6.84492188,42.0247266 C6.27808594,42.5915625 6.27808594,43.5105469 6.84492188,44.0775 C7.12839844,44.3609766 7.49988281,44.5026562 7.87125,44.5026562 C8.24261719,44.5026562 8.61421875,44.3609766 8.89757813,44.0775 L12.6969141,40.2782812 C13.26375,39.7115625 13.26375,38.7924609 12.6969141,38.2255078 Z" id="Shape"></path>
                    <path d="M50.4975,0.42515625 C49.9305469,-0.141679687 49.0117969,-0.141679687 48.4447266,0.42515625 L44.7495703,4.1203125 C44.1827344,4.68714844 44.1827344,5.60625 44.7495703,6.17296875 C45.0331641,6.45621094 45.4046484,6.59800781 45.7760156,6.59800781 C46.1476172,6.59800781 46.5188672,6.45621094 46.8023438,6.17285156 L50.4973828,2.4778125 C51.0642188,1.91097656 51.0642188,0.991875 50.4975,0.42515625 Z" id="Shape"></path>
                    <path d="M15.2480859,4.11820312 L11.5549219,0.42515625 C10.9880859,-0.141445312 10.0689844,-0.141445312 9.50214844,0.42515625 C8.9353125,0.991992187 8.9353125,1.91109375 9.50214844,2.47792969 L13.1953125,6.17109375 C13.4787891,6.45445312 13.8502734,6.59625 14.2216406,6.59625 C14.5930078,6.59625 14.9646094,6.45445312 15.2479688,6.17109375 C15.8148047,5.60425781 15.8148047,4.68515625 15.2480859,4.11820312 Z" id="Shape"></path>
                    <path d="M53.1544922,42.0251953 L49.3693359,38.2396875 C48.8023828,37.6728516 47.8836328,37.6728516 47.3165625,38.2398047 C46.7497266,38.8066406 46.7497266,39.7257422 47.3165625,40.2924609 L51.1018359,44.0777344 C51.3853125,44.3612109 51.7567969,44.5028906 52.1281641,44.5028906 C52.4997656,44.5028906 52.8710156,44.3610937 53.1544922,44.0777344 C53.7213281,43.5110156 53.7213281,42.5919141 53.1544922,42.0251953 Z" id="Shape"></path>
                    <path d="M29.9998828,3.94171875 C19.9630078,3.94171875 11.7975,12.4829297 11.7975,22.9816406 C11.7975,27.8625 13.5458203,33.11625 16.5943359,37.3957031 C18.935625,40.6822266 20.1730078,44.3389453 20.1730078,47.9707031 L20.1730078,57.0966797 C20.1730078,58.6973437 21.4753125,59.9996484 23.0759766,59.9996484 L36.9239063,59.9996484 C38.5245703,59.9996484 39.826875,58.6973437 39.826875,57.0966797 L39.826875,47.9707031 C39.826875,44.3390625 41.0642578,40.6822266 43.4053125,37.3957031 C46.4538281,33.1163672 48.2022656,27.8625 48.2022656,22.9816406 C48.2020313,12.4829297 40.0365234,3.94171875 29.9998828,3.94171875 Z M36.9236719,57.0969141 L23.0757422,57.0969141 L23.0757422,55.1983594 L29.9997656,55.1983594 C30.8014453,55.1983594 31.4513672,54.5485547 31.4513672,53.746875 C31.4513672,52.9451953 30.8014453,52.2953906 29.9997656,52.2953906 L23.0757422,52.2953906 L23.0757422,50.3969531 L36.9240234,50.3969531 L36.9256641,57.0966797 C36.9255469,57.0969141 36.9249609,57.0969141 36.9236719,57.0969141 Z M27.9643359,30.0165234 L26.0232422,25.8696094 L33.9762891,25.8696094 L32.0354297,30.0165234 C31.9590234,30.1797656 31.9136719,30.3558984 31.9016016,30.5356641 L30.7760156,47.4939844 L29.2236328,47.4939844 L28.0980469,30.5356641 C28.0860938,30.3558984 28.040625,30.1797656 27.9643359,30.0165234 Z M41.0408203,35.7114844 C38.4482813,39.3508594 37.0320703,43.4145703 36.9296484,47.4939844 L33.6854297,47.4939844 L34.7800781,30.9999609 L37.5727734,25.0333594 C37.7832422,24.5838281 37.749375,24.0577734 37.4828906,23.6389453 C37.2165234,23.2202344 36.7545703,22.9665234 36.2581641,22.9665234 L23.74125,22.9665234 C23.2448438,22.9665234 22.7830078,23.2202344 22.5165234,23.6389453 C22.2501563,24.0576563 22.2161719,24.5837109 22.4266406,25.0332422 L25.2194531,30.9998438 L26.3141016,47.4938672 L23.0696484,47.4938672 C22.9672266,43.4143359 21.5511328,39.3507422 18.9584766,35.7113672 C16.2919922,31.9681641 14.7001172,27.2092969 14.7001172,22.9815234 C14.7001172,14.0834766 21.5634375,6.84457031 29.9995313,6.84457031 C38.435625,6.84457031 45.2989453,14.0834766 45.2989453,22.9815234 C45.2991797,27.2095312 43.7073047,31.9683984 41.0408203,35.7114844 Z" id="Shape"></path>
                </g>
            </g>
        </g>
    </g>
</svg>