<?xml version="1.0" encoding="utf-8"?>
<!-- Generator: Adobe Illustrator 21.1.0, SVG Export Plug-In . SVG Version: 6.00 Build 0)  -->
<svg version="1.1" id="Layer_1" xmlns="http://www.w3.org/2000/svg" xmlns:xlink="http://www.w3.org/1999/xlink" x="0px" y="0px"
	 viewBox="0 0 120 169" style="enable-background:new 0 0 120 169;" xml:space="preserve">
<style type="text/css">
	.st0{fill:none;stroke:#FFFFFF;stroke-width:10;}
	.st1{fill:#FFFFFF;}
	.st2{font-family:'NewsGothicMT-Bold';}
	.st3{font-size:18px;}
</style>
<title>Group 2@2x</title>
<desc>Created with Sketch.</desc>
<circle id="Oval" class="st0" cx="60" cy="60" r="55"/>
<text transform="matrix(1 0 0 1 9.417 168)" class="st1 st2 st3">DISCOVERY</text>
<g id="idea-_x28_2_x29_" transform="translate(24.000000, 26.000000)">
	<path id="Shape" class="st1" d="M11.7,24.5H6.5c-0.8,0-1.5,0.6-1.5,1.5s0.6,1.5,1.5,1.5h5.2c0.8,0,1.5-0.6,1.5-1.5
		S12.5,24.5,11.7,24.5z"/>
	<path id="Shape_1_" class="st1" d="M63.5,24.5h-5.2c-0.8,0-1.5,0.6-1.5,1.5s0.6,1.5,1.5,1.5h5.2c0.8,0,1.5-0.6,1.5-1.5
		S64.3,24.5,63.5,24.5z"/>
	<path id="Shape_2_" class="st1" d="M17.7,43.2c-0.6-0.6-1.5-0.6-2.1,0L11.8,47c-0.6,0.6-0.6,1.5,0,2.1c0.3,0.3,0.7,0.4,1,0.4
		s0.7-0.1,1-0.4l3.8-3.8C18.3,44.7,18.3,43.8,17.7,43.2z"/>
	<path id="Shape_3_" class="st1" d="M55.5,5.4c-0.6-0.6-1.5-0.6-2.1,0l-3.7,3.7c-0.6,0.6-0.6,1.5,0,2.1c0.3,0.3,0.7,0.4,1,0.4
		c0.4,0,0.7-0.1,1-0.4l3.7-3.7C56.1,6.9,56.1,6,55.5,5.4z"/>
	<path id="Shape_4_" class="st1" d="M20.2,9.1l-3.7-3.7c-0.6-0.6-1.5-0.6-2.1,0c-0.6,0.6-0.6,1.5,0,2.1l3.7,3.7
		c0.3,0.3,0.7,0.4,1,0.4c0.4,0,0.7-0.1,1-0.4C20.8,10.6,20.8,9.7,20.2,9.1z"/>
	<path id="Shape_5_" class="st1" d="M58.2,47l-3.8-3.8c-0.6-0.6-1.5-0.6-2.1,0c-0.6,0.6-0.6,1.5,0,2.1l3.8,3.8
		c0.3,0.3,0.7,0.4,1,0.4c0.4,0,0.7-0.1,1-0.4C58.7,48.5,58.7,47.6,58.2,47z"/>
	<path id="Shape_6_" class="st1" d="M35,8.9c-10,0-18.2,8.5-18.2,19c0,4.9,1.7,10.1,4.8,14.4c2.3,3.3,3.6,6.9,3.6,10.6v9.1
		c0,1.6,1.3,2.9,2.9,2.9h13.8c1.6,0,2.9-1.3,2.9-2.9V53c0-3.6,1.2-7.3,3.6-10.6c3-4.3,4.8-9.5,4.8-14.4C53.2,17.5,45,8.9,35,8.9z
		 M41.9,62.1H28.1v-1.9H35c0.8,0,1.5-0.6,1.5-1.5c0-0.8-0.6-1.5-1.5-1.5h-6.9v-1.9h13.8L41.9,62.1C41.9,62.1,41.9,62.1,41.9,62.1z
		 M33,35L31,30.9h8L37,35c-0.1,0.2-0.1,0.3-0.1,0.5l-1.1,17h-1.6l-1.1-17C33.1,35.4,33,35.2,33,35z M46,40.7
		c-2.6,3.6-4,7.7-4.1,11.8h-3.2L39.8,36l2.8-6c0.2-0.4,0.2-1-0.1-1.4c-0.3-0.4-0.7-0.7-1.2-0.7H28.7c-0.5,0-1,0.3-1.2,0.7
		c-0.3,0.4-0.3,0.9-0.1,1.4l2.8,6l1.1,16.5h-3.2c-0.1-4.1-1.5-8.1-4.1-11.8c-2.7-3.7-4.3-8.5-4.3-12.7c0-8.9,6.9-16.1,15.3-16.1
		S50.3,19.1,50.3,28C50.3,32.2,48.7,37,46,40.7z"/>
</g>
</svg>
