<?xml version="1.0" encoding="utf-8"?>
<!-- Generator: Adobe Illustrator 21.1.0, SVG Export Plug-In . SVG Version: 6.00 Build 0)  -->
<svg version="1.1" id="Layer_1" xmlns="http://www.w3.org/2000/svg" xmlns:xlink="http://www.w3.org/1999/xlink" x="0px" y="0px"
	 viewBox="0 0 120 169" style="enable-background:new 0 0 120 169;" xml:space="preserve">
<style type="text/css">
	.st0{fill:none;stroke:#FFFFFF;stroke-width:10;}
	.st1{fill:#FFFFFF;}
	.st2{font-family:'NewsGothicMT-Bold';}
	.st3{font-size:18px;}
</style>
<title>Group 4</title>
<desc>Created with Sketch.</desc>
<circle id="Oval" class="st0" cx="60" cy="60" r="55"/>
<text transform="matrix(1 0 0 1 26.3481 168)" class="st1 st2 st3">DESIGN</text>
<g id="layers-_x28_1_x29_" transform="translate(25.000000, 29.000000)">
	<path id="Shape" class="st1" d="M64.9,31.7c0-1.3-0.7-2.4-1.8-3l-4.5-2.2l4.5-2.2c0,0,0,0,0,0c1.1-0.6,1.8-1.7,1.8-3
		c0-1.3-0.7-2.4-1.8-3L37.9,5.7c-1.8-0.9-4-0.9-5.9,0L6.8,18.3C5.7,18.9,5,20,5,21.3c0,1.3,0.7,2.4,1.8,3l4.5,2.2l-4.5,2.2
		c-1.1,0.6-1.8,1.7-1.8,3c0,1.3,0.7,2.4,1.8,3l4.5,2.2l-4.5,2.2c-1.1,0.6-1.8,1.7-1.8,3c0,1.3,0.7,2.4,1.8,3L32,57.6
		c0.9,0.5,1.9,0.7,2.9,0.7c1,0,2-0.2,2.9-0.7L63,45c1.1-0.6,1.8-1.7,1.8-3c0-1.3-0.7-2.4-1.8-3l-4.5-2.2l4.5-2.2
		C64.2,34.1,64.9,32.9,64.9,31.7z M8.1,21.8c-0.3-0.1-0.3-0.4-0.3-0.5c0-0.1,0-0.4,0.3-0.5L33.2,8.2c0.5-0.3,1.1-0.4,1.7-0.4
		c0.6,0,1.2,0.1,1.7,0.4l25.2,12.6c0.3,0.1,0.3,0.4,0.3,0.5c0,0.1,0,0.4-0.3,0.5L36.6,34.4c-1.1,0.5-2.3,0.5-3.4,0L8.1,21.8z
		 M61.8,41.6c0.3,0.1,0.3,0.4,0.3,0.5c0,0.1,0,0.4-0.3,0.5L36.6,55.2c-1.1,0.5-2.3,0.5-3.4,0L8.1,42.6c-0.3-0.1-0.3-0.4-0.3-0.5
		c0-0.1,0-0.4,0.3-0.5l6.3-3.2L32,47.2c0.9,0.5,1.9,0.7,2.9,0.7c1,0,2-0.2,2.9-0.7l17.6-8.8L61.8,41.6z M61.8,32.2L36.6,44.8
		c-1.1,0.5-2.3,0.5-3.4,0L8.1,32.2c-0.3-0.1-0.3-0.4-0.3-0.5c0-0.1,0-0.4,0.3-0.5l6.3-3.2L32,36.8c0.9,0.5,1.9,0.7,2.9,0.7
		c1,0,2-0.2,2.9-0.7L55.5,28l6.3,3.2c0.3,0.1,0.3,0.4,0.3,0.5C62.1,31.8,62.1,32,61.8,32.2z"/>
</g>
</svg>
