<?xml version="1.0" encoding="utf-8"?>
<!-- Generator: Adobe Illustrator 21.1.0, SVG Export Plug-In . SVG Version: 6.00 Build 0)  -->
<svg version="1.1" id="Layer_1" xmlns="http://www.w3.org/2000/svg" xmlns:xlink="http://www.w3.org/1999/xlink" x="0px" y="0px"
	 viewBox="0 0 120 169" style="enable-background:new 0 0 120 169;" xml:space="preserve">
<style type="text/css">
	.st0{fill:none;stroke:#FFFFFF;stroke-width:10;}
	.st1{fill:#FFFFFF;}
	.st2{font-family:'NewsGothicMT-Bold';}
	.st3{font-size:18px;}
</style>
<title>Group 6</title>
<desc>Created with Sketch.</desc>
<circle id="Oval" class="st0" cx="60" cy="60" r="55"/>
<text transform="matrix(1 0 0 1 30.832 168)" class="st1 st2 st3">DEBUG</text>
<g id="settings" transform="translate(25.000000, 23.000000)">
	<path id="Shape" class="st1" d="M43.5,48.1c-0.6-0.4-1.3-0.8-1.9-1.1c0.2-1.3,0.2-2.6,0-3.9c0.6-0.4,1.3-0.8,1.9-1.1
		c1.1-0.6,1.5-2,1-3.1c0,0,0,0,0,0l-1.4-3.3c-0.5-1.1-1.7-1.8-2.9-1.5c-0.7,0.2-1.4,0.4-2.2,0.6c-0.8-1-1.7-1.9-2.8-2.8
		c0.2-0.7,0.4-1.4,0.6-2.2c0.3-1.2-0.3-2.5-1.5-2.9L31,25.4c-1.1-0.5-2.5,0-3.1,1c-0.4,0.6-0.8,1.3-1.1,1.9c-1.3-0.2-2.6-0.2-3.9,0
		c-0.4-0.6-0.8-1.3-1.1-1.9c-0.6-1.1-2-1.5-3.1-1l-3.3,1.4c-1.1,0.5-1.8,1.7-1.5,2.9c0.2,0.7,0.4,1.4,0.6,2.2
		c-1,0.8-1.9,1.7-2.8,2.8c-0.7-0.2-1.5-0.4-2.2-0.6c-1.2-0.3-2.5,0.3-2.9,1.5l-1.4,3.3c-0.5,1.1,0,2.5,1,3.1
		c0.6,0.4,1.3,0.8,1.9,1.1C8,44.4,8,45.7,8.1,47c-0.6,0.4-1.3,0.8-1.9,1.1c-1.1,0.6-1.5,2-1,3.1l1.4,3.3C7,55.7,8.3,56.3,9.5,56
		c0.7-0.2,1.4-0.4,2.2-0.6c0.8,1,1.7,1.9,2.8,2.8c-0.2,0.7-0.4,1.4-0.6,2.2c-0.3,1.2,0.3,2.5,1.5,2.9l3.3,1.4c0.3,0.1,0.6,0.2,1,0.2
		c0.9,0,1.7-0.4,2.2-1.2c0.4-0.6,0.8-1.3,1.1-1.9c1.3,0.2,2.6,0.2,3.9,0c0.4,0.6,0.8,1.3,1.1,1.9c0.6,1.1,2,1.5,3.1,1l3.3-1.4
		c1.1-0.5,1.8-1.7,1.5-2.9c-0.2-0.7-0.4-1.4-0.6-2.2c1-0.8,1.9-1.7,2.8-2.8c0.7,0.2,1.4,0.4,2.2,0.6c1.2,0.3,2.5-0.3,2.9-1.5
		l1.4-3.3C45,50.1,44.5,48.8,43.5,48.1z M40.7,53.4c-0.7-0.2-1.4-0.4-2.1-0.5c-1-0.3-2,0.1-2.6,0.9c-0.7,0.9-1.5,1.7-2.5,2.5
		c-0.8,0.6-1.1,1.7-0.9,2.6c0.2,0.7,0.4,1.4,0.5,2.1l-3.1,1.3c-0.4-0.6-0.7-1.2-1.1-1.8c-0.5-0.9-1.5-1.4-2.5-1.2
		c-1.1,0.1-2.3,0.1-3.5,0c-1-0.1-2,0.4-2.5,1.2c-0.4,0.6-0.7,1.2-1.1,1.8l-3.1-1.3c0.2-0.7,0.4-1.4,0.5-2.1c0.3-1-0.1-2-0.9-2.6
		c-0.9-0.7-1.7-1.5-2.5-2.5c-0.6-0.8-1.7-1.1-2.6-0.9c-0.7,0.2-1.4,0.4-2.1,0.5l-1.3-3.1c0.6-0.4,1.2-0.7,1.8-1.1
		c0.9-0.5,1.4-1.5,1.2-2.5c-0.1-1.1-0.1-2.3,0-3.5c0.1-1-0.4-2-1.2-2.5c-0.6-0.4-1.2-0.7-1.8-1.1L9,36.7c0.7,0.2,1.4,0.4,2.1,0.5
		c1,0.3,2-0.1,2.6-0.9c0.7-0.9,1.5-1.7,2.5-2.5c0.8-0.6,1.1-1.7,0.9-2.6c-0.2-0.7-0.4-1.4-0.5-2.1l3.1-1.3c0.4,0.6,0.7,1.2,1.1,1.8
		c0.5,0.9,1.5,1.4,2.5,1.2c1.1-0.1,2.3-0.1,3.5,0c1,0.1,2-0.4,2.5-1.2c0.4-0.6,0.7-1.2,1.1-1.8l3.1,1.3c-0.2,0.7-0.4,1.4-0.5,2.1
		c-0.3,1,0.1,2,0.9,2.6c0.9,0.7,1.7,1.5,2.5,2.5c0.6,0.8,1.7,1.1,2.6,0.9c0.7-0.2,1.4-0.4,2.1-0.5l1.3,3.1c-0.6,0.4-1.2,0.7-1.8,1.1
		c-0.9,0.5-1.4,1.5-1.2,2.5c0.1,1.1,0.1,2.3,0,3.5c-0.1,1,0.4,2,1.2,2.5c0.6,0.4,1.2,0.7,1.8,1.1L40.7,53.4z"/>
	<path id="Shape_1_" class="st1" d="M33.3,41.6C33.3,41.6,33.3,41.6,33.3,41.6c-1.9-4.7-7.3-6.9-11.9-4.9c-4.7,1.9-6.9,7.3-4.9,11.9
		c0.9,2.3,2.7,4,4.9,4.9c1.1,0.5,2.3,0.7,3.5,0.7c1.2,0,2.4-0.2,3.5-0.7C33,51.6,35.2,46.2,33.3,41.6z M27.3,51
		c-1.6,0.7-3.3,0.7-4.9,0c-1.6-0.7-2.8-1.9-3.5-3.5c-1.4-3.3,0.2-7.1,3.5-8.4c0.8-0.3,1.6-0.5,2.5-0.5c2.5,0,4.9,1.5,6,4
		C32.2,45.9,30.6,49.6,27.3,51z"/>
	<path id="Shape_2_" class="st1" d="M63.1,16.8c-0.5-0.1-0.9-0.1-1.4-0.2c-0.2-0.8-0.6-1.6-1-2.3c0.3-0.4,0.6-0.8,0.9-1.1
		c0.6-0.8,0.5-2-0.2-2.8l-1.8-1.8c-0.7-0.7-1.9-0.8-2.8-0.2c-0.4,0.3-0.8,0.6-1.1,0.9c-0.7-0.4-1.5-0.7-2.3-1
		c-0.1-0.5-0.1-1-0.2-1.4C52.9,5.8,52,5,51,5h-2.6c-1,0-1.9,0.8-2.1,1.8c-0.1,0.5-0.1,0.9-0.2,1.4c-0.8,0.2-1.6,0.6-2.3,1
		c-0.4-0.3-0.8-0.6-1.1-0.9c-0.8-0.6-2-0.5-2.8,0.2L38,10.4c-0.7,0.7-0.8,1.9-0.2,2.8c0.3,0.4,0.6,0.8,0.9,1.1
		c-0.4,0.7-0.7,1.5-1,2.3c-0.5,0.1-1,0.1-1.4,0.2c-1,0.2-1.8,1.1-1.8,2.1v2.6c0,1,0.8,1.9,1.8,2.1c0.5,0.1,0.9,0.1,1.4,0.2
		c0.2,0.8,0.6,1.6,1,2.3c-0.3,0.4-0.6,0.8-0.9,1.1c-0.6,0.8-0.5,2,0.2,2.8l1.8,1.8c0.7,0.7,1.9,0.8,2.8,0.2c0.4-0.3,0.8-0.6,1.1-0.9
		c0.7,0.4,1.5,0.7,2.3,1c0.1,0.5,0.1,1,0.2,1.4c0.2,1,1.1,1.8,2.1,1.8H51c1,0,1.9-0.8,2.1-1.8c0.1-0.5,0.1-0.9,0.2-1.4
		c0.8-0.2,1.6-0.6,2.3-1c0.4,0.3,0.8,0.6,1.1,0.9c0.8,0.6,2,0.5,2.8-0.2l1.8-1.8c0.7-0.7,0.8-1.9,0.2-2.8c-0.3-0.4-0.6-0.8-0.9-1.1
		c0.4-0.7,0.7-1.5,1-2.3c0.5-0.1,1-0.1,1.4-0.2c1-0.2,1.8-1.1,1.8-2.1v-2.6C64.9,17.9,64.1,17,63.1,16.8z M62.3,21.2
		c-0.4,0.1-0.8,0.1-1.3,0.2c-0.9,0.1-1.5,0.7-1.8,1.5c-0.2,0.8-0.5,1.5-0.9,2.3c-0.4,0.7-0.4,1.7,0.2,2.3c0.3,0.3,0.5,0.7,0.8,1
		L58,29.8c-0.3-0.3-0.7-0.5-1-0.8c-0.7-0.5-1.6-0.6-2.3-0.2c-0.7,0.4-1.5,0.7-2.3,0.9c-0.8,0.2-1.4,0.9-1.5,1.8
		c-0.1,0.4-0.1,0.9-0.2,1.3h-1.9c-0.1-0.4-0.1-0.8-0.2-1.3c-0.1-0.9-0.7-1.5-1.5-1.8c-0.8-0.2-1.5-0.5-2.3-0.9
		c-0.7-0.4-1.7-0.4-2.3,0.2c-0.3,0.3-0.7,0.5-1,0.8L40,28.5c0.3-0.3,0.5-0.7,0.8-1c0.5-0.7,0.6-1.6,0.2-2.3
		c-0.4-0.7-0.7-1.5-0.9-2.3c-0.2-0.8-0.9-1.4-1.8-1.5c-0.4-0.1-0.9-0.1-1.3-0.2v-1.9c0.4-0.1,0.8-0.1,1.3-0.2
		c0.9-0.1,1.5-0.7,1.8-1.5c0.2-0.8,0.5-1.5,0.9-2.3c0.4-0.7,0.4-1.7-0.2-2.3c-0.3-0.3-0.5-0.7-0.8-1l1.3-1.3c0.3,0.3,0.7,0.5,1,0.8
		c0.7,0.5,1.6,0.6,2.3,0.2c0.7-0.4,1.5-0.7,2.3-0.9c0.8-0.2,1.4-0.9,1.5-1.8c0.1-0.4,0.1-0.9,0.2-1.3h1.9c0.1,0.4,0.1,0.8,0.2,1.3
		c0.1,0.9,0.7,1.5,1.5,1.8c0.8,0.2,1.5,0.5,2.3,0.9c0.7,0.4,1.7,0.4,2.3-0.2c0.3-0.3,0.7-0.5,1-0.8l1.3,1.3c-0.3,0.3-0.5,0.7-0.8,1
		c-0.5,0.7-0.6,1.6-0.2,2.3c0.4,0.7,0.7,1.5,0.9,2.3c0.2,0.8,0.9,1.4,1.8,1.5c0.4,0.1,0.9,0.1,1.3,0.2V21.2z"/>
	<path id="Shape_3_" class="st1" d="M49.7,14.8c-3,0-5.4,2.4-5.4,5.4c0,3,2.4,5.4,5.4,5.4c3,0,5.4-2.4,5.4-5.4
		C55.1,17.2,52.7,14.8,49.7,14.8z M49.7,23.2c-1.7,0-3-1.4-3-3c0-1.7,1.4-3,3-3c1.7,0,3,1.4,3,3C52.7,21.9,51.3,23.2,49.7,23.2z"/>
</g>
</svg>
