<?xml version="1.0" encoding="UTF-8"?>
<svg width="120px" height="169px" viewBox="0 0 120 169" version="1.1" xmlns="http://www.w3.org/2000/svg" xmlns:xlink="http://www.w3.org/1999/xlink">
    <!-- Generator: Sketch 46 (44423) - http://www.bohemiancoding.com/sketch -->
    <title>Group 6</title>
    <desc>Created with Sketch.</desc>
    <defs></defs>
    <g id="Page-1" stroke="none" stroke-width="1" fill="none" fill-rule="evenodd">
        <g id="Desktop" transform="translate(-691.000000, -520.000000)">
            <g id="Group-6" transform="translate(696.000000, 525.000000)">
                <circle id="Oval" stroke="#0D73E0" stroke-width="10" cx="55" cy="55" r="55"></circle>
                <text id="DEBUG" font-family="NewsGothicMT-Bold, News Gothic MT" font-size="18" font-weight="bold" fill="#005092">
                    <tspan x="25.8320312" y="163">DEBUG</tspan>
                </text>
                <g id="settings" transform="translate(25.000000, 23.000000)" fill-rule="nonzero" fill="#005092">
                    <path d="M38.4612865,43.1266667 C37.8316959,42.7483041 37.1854971,42.3679532 36.5392982,41.9950877 C36.6912281,40.7003509 36.6915789,39.3906433 36.54,38.0984795 C37.188655,37.7242105 37.8345029,37.3440936 38.4610526,36.9673684 C39.5160234,36.3334503 39.9557895,34.9959064 39.4837427,33.8559064 C39.4837427,33.8559064 39.4837427,33.8559064 39.4836257,33.8557895 L38.1069006,30.5320468 C37.6347368,29.3923977 36.3785965,28.757193 35.1837427,29.0548538 C34.4736842,29.2315789 33.7481871,29.4195322 33.0252632,29.6134503 C32.2181287,28.5921637 31.2919298,27.6661988 30.2693567,26.8585965 C30.4632749,26.1355556 30.651345,25.4097076 30.8281871,24.6994152 C31.125848,23.5051462 30.4907602,22.248538 29.3511111,21.7763743 L26.0273684,20.3996491 C24.8877193,19.9273684 23.5498246,20.3667836 22.9156725,21.4219883 C22.5380117,22.0505263 22.1575439,22.6967251 21.7842105,23.3439766 C20.4898246,23.1920468 19.1803509,23.1916959 17.8876023,23.3431579 C17.5130994,22.6939181 17.1328655,22.0479532 16.7566082,21.4219883 C16.1222222,20.3670175 14.7846784,19.9274854 13.6449123,20.3996491 L10.3211696,21.7763743 C9.18175439,22.2484211 8.54643275,23.5051462 8.84409357,24.6994152 C9.02128655,25.4111111 9.20912281,26.1367251 9.40269006,26.8578947 C8.38152047,27.6647953 7.4554386,28.5912281 6.64795322,29.6138012 C5.92327485,29.4192982 5.1974269,29.231462 4.48853801,29.0548538 C3.29391813,28.7569591 2.03754386,29.3926316 1.56538012,30.5321637 L0.188888889,33.8557895 C-0.283040936,34.9955556 0.156608187,36.3332164 1.21134503,36.9671345 C1.84,37.3449123 2.48619883,37.7252632 3.13333333,38.0987135 C2.98152047,39.3929825 2.98116959,40.7024561 3.13263158,41.9953216 C2.48491228,42.3690058 1.83906433,42.7492398 1.21111111,43.1265497 C0.156374269,43.7605848 -0.283274854,45.0981287 0.18877193,46.2380117 L1.56561404,49.5617544 C2.03766082,50.7012865 3.29368421,51.3367251 4.48877193,51.0389474 C5.1980117,50.8623392 5.92362573,50.6745029 6.64701754,50.4803509 C7.45415205,51.5015205 8.38035088,52.4273684 9.40292398,53.2350877 C9.20877193,53.9589474 9.02081871,54.6847953 8.84409357,55.394269 C8.54643275,56.588538 9.18152047,57.8452632 10.3211696,58.3173099 L13.6450292,59.694152 C13.9538012,59.8219883 14.2769591,59.8830409 14.5967251,59.8830409 C15.4577778,59.8830409 16.294269,59.4410526 16.757076,58.6719298 C17.1319298,58.0481871 17.5121637,57.4022222 17.888538,56.7500585 C19.1826901,56.9017544 20.4925146,56.9019883 21.7851462,56.7507602 C22.1569591,57.3954386 22.537193,58.0412865 22.9161404,58.6720468 C23.5502924,59.7270175 24.8878363,60.1664327 26.0278363,59.694386 L29.3515789,58.3176608 C30.4909942,57.845614 31.1263158,56.5888889 30.828655,55.3946199 C30.6528655,54.6890058 30.4650292,53.9633918 30.2700585,53.2361404 C31.2909942,52.4292398 32.217193,51.502924 33.0249123,50.4803509 C33.7474854,50.674152 34.4733333,50.8619883 35.1839766,51.0390643 C36.3782456,51.3369591 37.6349708,50.7017544 38.1071345,49.5618713 L39.4838596,46.2380117 C39.9556725,45.0982456 39.5160234,43.7605848 38.4612865,43.1266667 Z M35.6860819,48.4016374 C35.0033918,48.2306433 34.3074854,48.0498246 33.6155556,47.8633918 C32.6359064,47.599883 31.6021053,47.9443275 30.9817544,48.7414035 C30.2687719,49.657193 29.4436257,50.4824561 28.5293567,51.194386 C27.7332164,51.8145029 27.3892398,52.8479532 27.6529825,53.8270175 C27.8404678,54.5233918 28.0211696,55.2188304 28.1911111,55.8967251 L25.1359064,57.1621053 C24.7725146,56.5557895 24.408655,55.9362573 24.0529825,55.3182456 C23.5469006,54.4394152 22.5728655,53.9523977 21.5715789,54.0763743 C20.4217544,54.2191813 19.2546199,54.2190643 18.1032749,54.0757895 C17.0991813,53.9511111 16.1259649,54.4381287 15.62,55.317193 C15.26,55.9422222 14.8960234,56.5621053 14.5366082,57.1619883 L11.4814035,55.8964912 C11.6522807,55.2149708 11.8330994,54.5191813 12.0197661,53.8261988 C12.2835088,52.8466667 11.9388304,51.8127485 11.1417544,51.1922807 C10.2259649,50.4794152 9.40081871,49.654386 8.68877193,48.7402339 C8.06888889,47.9438596 7.0354386,47.6 6.05602339,47.8636257 C5.36327485,48.0501754 4.6677193,48.2309942 3.98643275,48.4017544 L2.72093567,45.3466667 C3.32444444,44.9847953 3.94421053,44.6209357 4.56479532,44.2636257 C5.44374269,43.7575439 5.93122807,42.7837427 5.80678363,41.7823392 C5.66374269,40.6323977 5.66409357,39.4653801 5.8071345,38.3139181 C5.93204678,37.3115789 5.44491228,36.3367251 4.56549708,35.8305263 C3.9451462,35.4733333 3.32526316,35.1093567 2.72081871,34.7469006 L3.98631579,31.6918129 C4.66701754,31.8624561 5.36269006,32.0432749 6.05672515,32.2300585 C7.03590643,32.4939181 8.06982456,32.1491228 8.69064327,31.3520468 C9.40350877,30.4362573 10.228655,29.6109942 11.1426901,28.8991813 C11.9389474,28.2791813 12.282924,27.245614 12.0191813,26.2661988 C11.8332164,25.5756725 11.6523977,24.8802339 11.4810526,24.1967251 L14.5362573,22.931345 C14.8969591,23.5332164 15.2609357,24.1528655 15.6191813,24.7752047 C16.1253801,25.654152 17.1002339,26.1423392 18.1005848,26.017076 C19.2499415,25.8740351 20.4168421,25.8740351 21.5692398,26.0176608 C22.5721637,26.1425731 23.5464327,25.6548538 24.0523977,24.7759064 C24.4094737,24.1555556 24.7735673,23.5356725 25.1356725,22.931345 L28.1908772,24.1967251 C28.019883,24.8789474 27.8390643,25.5747368 27.6525146,26.2672515 C27.3887719,27.2466667 27.7334503,28.2805848 28.5305263,28.9010526 C29.4461988,29.6139181 30.271462,30.4389474 30.9835088,31.3530994 C31.6033918,32.1492398 32.6364912,32.4932164 33.6163743,32.2295906 C34.308655,32.0431579 35.0040936,31.8623392 35.685848,31.691462 L36.9512281,34.7465497 C36.348538,35.1078363 35.7288889,35.4716959 35.1073684,35.8295906 C34.2284211,36.3356725 33.7408187,37.3095906 33.8653801,38.3109942 C34.0084211,39.4603509 34.0081871,40.6274854 33.8647953,41.7796491 C33.740117,42.7821053 34.2274854,43.7567251 35.1065497,44.262807 C35.7259649,44.6194152 36.345848,44.9833918 36.9512281,45.3461988 L35.6860819,48.4016374 Z" id="Shape"></path>
                    <path d="M28.2762573,36.5509942 C28.2762573,36.5509942 28.2762573,36.5509942 28.2761404,36.5508772 C26.348655,31.897193 20.9947368,29.6792982 16.3403509,31.6069006 C11.6867836,33.5346199 9.46877193,38.8890058 11.3964912,43.5426901 C12.3301754,45.797193 14.0861988,47.5528655 16.3404678,48.4867836 C17.4676023,48.9535673 18.6519298,49.1870175 19.8362573,49.1870175 C21.0205848,49.1870175 22.2049123,48.9535673 23.3322807,48.4867836 C27.985848,46.5590643 30.2037427,41.2047953 28.2762573,36.5509942 Z M22.3064327,46.0102924 C20.7136842,46.6700585 18.9594152,46.6699415 17.3661988,46.0102924 C15.7734503,45.3505263 14.5328655,44.1098246 13.8729825,42.5169591 C12.5107602,39.2287719 14.0780117,35.4453801 17.3663158,34.0833918 C18.1715789,33.7498246 19.0061988,33.5919298 19.8279532,33.5919298 C22.3621053,33.5919298 24.7712281,35.0936842 25.799883,37.5767251 C27.1618713,40.8649123 25.5946199,44.6481871 22.3064327,46.0102924 Z" id="Shape"></path>
                    <path d="M58.0763743,11.8053801 C57.6136842,11.7361404 57.1384795,11.6688889 56.659883,11.6050292 C56.4187135,10.8030409 56.0966082,10.0254971 55.6991813,9.28701754 C55.9920468,8.90397661 56.2807018,8.52023392 56.5596491,8.14327485 C57.1789474,7.30573099 57.0893567,6.11789474 56.351462,5.38035088 L54.5025731,3.53169591 C53.7646784,2.79368421 52.5768421,2.70421053 51.7395322,3.32374269 C51.3612865,3.60362573 50.9776608,3.89216374 50.5957895,4.18397661 C49.8574269,3.78654971 49.08,3.46444444 48.2777778,3.22315789 C48.2138012,2.7445614 48.1467836,2.26935673 48.0775439,1.80678363 C47.9235088,0.776842105 47.0203509,0 45.9768421,0 L43.3621053,0 C42.3185965,0 41.4154386,0.776842105 41.2614035,1.80666667 C41.1922807,2.26900585 41.1251462,2.74432749 41.0611696,3.22304094 C40.2589474,3.46432749 39.4814035,3.78643275 38.7431579,4.18385965 C38.3615205,3.89192982 37.9776608,3.60327485 37.5995322,3.32362573 C36.7619883,2.70409357 35.574152,2.79356725 34.8364912,3.53146199 L32.9878363,5.38 C32.2498246,6.11777778 32.160117,7.30573099 32.7796491,8.14339181 C33.0583626,8.52023392 33.3470175,8.90409357 33.6397661,9.28701754 C33.2425731,10.0253801 32.9203509,10.802807 32.6790643,11.6050292 C32.2005848,11.6690058 31.7252632,11.7361404 31.2626901,11.8053801 C30.2326316,11.9595322 29.4557895,12.8625731 29.4557895,13.9061988 L29.4557895,16.5208187 C29.4557895,17.5643275 30.2323977,18.4674854 31.2624561,18.6216374 C31.7251462,18.6908772 32.2003509,18.7581287 32.6789474,18.8219883 C32.9202339,19.6240936 33.2423392,20.4015205 33.6396491,21.14 C33.3471345,21.5226901 33.0584795,21.9063158 32.7791813,22.2837427 C32.16,23.1210526 32.2494737,24.3091228 32.9873684,25.0465497 L34.8362573,26.8954386 C35.5740351,27.6334503 36.7618713,27.722807 37.5992982,27.1033918 C37.9775439,26.8237427 38.3611696,26.5349708 38.742924,26.2432749 C39.4815205,26.6407018 40.2590643,26.962807 41.0610526,27.2039766 C41.1247953,27.6824561 41.1920468,28.1577778 41.2612865,28.6204678 C41.4154386,29.6504094 42.3185965,30.4272515 43.3621053,30.4272515 L45.9768421,30.4272515 C47.0203509,30.4272515 47.9235088,29.6506433 48.0775439,28.6203509 C48.1466667,28.1576608 48.2138012,27.6824561 48.2777778,27.2038596 C49.079883,26.962807 49.8573099,26.6404678 50.5957895,26.2430409 C50.9774269,26.5349708 51.3612865,26.8236257 51.7394152,27.1033918 C52.5767251,27.722924 53.7647953,27.6334503 54.5024561,26.8955556 L56.351345,25.0469006 C57.0892398,24.3091228 57.1788304,23.1211696 56.5592982,22.2836257 C56.2802339,21.9063158 55.9915789,21.5224561 55.6991813,21.140117 C56.0963743,20.4017544 56.4185965,19.6244444 56.659883,18.8221053 C57.1383626,18.7581287 57.6136842,18.6909942 58.0762573,18.6217544 C59.1063158,18.4676023 59.8831579,17.5645614 59.8831579,16.5209357 L59.8831579,13.9063158 C59.8830409,12.8626901 59.1063158,11.9595322 58.0763743,11.8053801 Z M57.3366082,16.1569591 C56.9164912,16.2178947 56.4878363,16.277076 56.0577778,16.3330994 C55.2071345,16.4440936 54.5107602,17.0478363 54.2840936,17.8709942 C54.0669006,18.6591813 53.7516959,19.4197661 53.3473684,20.1315789 C52.9250292,20.8746199 52.9901754,21.794152 53.5133333,22.4745029 C53.777076,22.8174269 54.0387135,23.1625731 54.2933333,23.5036257 L52.9595322,24.8375439 C52.6174269,24.5822222 52.2722807,24.3207018 51.9300585,24.0575439 C51.2500585,23.534152 50.3302924,23.4694737 49.5871345,23.891345 C48.8752047,24.2957895 48.1146199,24.6109942 47.3269006,24.8281871 C46.5032749,25.0550877 45.8995322,25.751462 45.7888889,26.6018713 C45.7328655,27.0319298 45.6738012,27.4607018 45.6127485,27.8808187 L43.7261988,27.8808187 C43.6652632,27.4607018 43.6061988,27.0320468 43.5500585,26.6023392 C43.4390643,25.7515789 42.8354386,25.0552047 42.0120468,24.8283041 C41.2240936,24.6112281 40.4637427,24.2960234 39.7515789,23.8915789 C39.0084211,23.4693567 38.088655,23.534269 37.4087719,24.0575439 C37.0664327,24.3208187 36.7215205,24.5822222 36.3791813,24.8375439 L35.0453801,23.5036257 C35.3,23.1622222 35.5615205,22.8173099 35.825614,22.4740351 C36.3484211,21.7939181 36.4135673,20.874386 35.991345,20.131345 C35.5870175,19.4195322 35.2718129,18.6588304 35.0546199,17.8708772 C34.8278363,17.0474854 34.1315789,16.4438596 33.2809357,16.3328655 C32.8508772,16.2767251 32.4221053,16.2177778 32.0019883,16.1566082 L32.0019883,14.2702924 C32.4221053,14.2093567 32.8507602,14.1501754 33.2808187,14.094152 C34.131462,13.9831579 34.8278363,13.3794152 35.0545029,12.5562573 C35.2716959,11.7681871 35.5867836,11.0076023 35.9912281,10.2956725 C36.4135673,9.55263158 36.3484211,8.63298246 35.8254971,7.9528655 C35.5612865,7.60947368 35.2997661,7.26444444 35.0453801,6.92362573 L36.3791813,5.5897076 C36.7212865,5.84502924 37.0663158,6.10654971 37.4084211,6.36959064 C38.0881871,6.89298246 39.0078363,6.95824561 39.7515789,6.53590643 C40.4632749,6.13157895 41.2239766,5.81637427 42.0118129,5.59906433 C42.8354386,5.37216374 43.4391813,4.67578947 43.5498246,3.82538012 C43.6059649,3.39532164 43.6651462,2.96666667 43.7260819,2.54654971 L45.6126316,2.54654971 C45.6735673,2.96654971 45.7326316,3.39520468 45.788655,3.82502924 C45.8996491,4.67578947 46.5033918,5.37216374 47.3266667,5.59894737 C48.1147368,5.81614035 48.8754386,6.13146199 49.5872515,6.53578947 C50.3305263,6.95812865 51.2501754,6.89251462 51.9299415,6.3697076 C52.2722807,6.10654971 52.617193,5.84502924 52.9595322,5.5897076 L54.2933333,6.92362573 C54.0389474,7.2645614 53.7774269,7.6097076 53.5132164,7.95321637 C52.9902924,8.63321637 52.9252632,9.55274854 53.3472515,10.2957895 C53.7515789,11.0078363 54.0667836,11.768538 54.2839766,12.5563743 C54.5107602,13.3797661 55.2070175,13.9833918 56.0576608,14.094386 C56.4877193,14.1505263 56.9164912,14.2095906 57.3366082,14.2706433 L57.3366082,16.1569591 Z" id="Shape"></path>
                    <path d="M44.6694737,9.78654971 C41.677076,9.78654971 39.2424561,12.2210526 39.2424561,15.2135673 C39.2424561,18.2061988 41.6769591,20.6407018 44.6694737,20.6407018 C47.6619883,20.6407018 50.0964912,18.2061988 50.0964912,15.2135673 C50.0964912,12.2210526 47.6619883,9.78654971 44.6694737,9.78654971 Z M44.6694737,18.2281871 C43.0073684,18.2281871 41.6548538,16.8757895 41.6548538,15.2134503 C41.6548538,13.5511111 43.0072515,12.1988304 44.6694737,12.1988304 C46.3316959,12.1988304 47.6839766,13.5512281 47.6840936,15.2134503 C47.6840936,16.8757895 46.3316959,18.2281871 44.6694737,18.2281871 Z" id="Shape"></path>
                </g>
            </g>
        </g>
    </g>
</svg>