<?xml version="1.0" encoding="UTF-8"?>
<svg width="120px" height="120px" viewBox="0 0 120 120" version="1.1" xmlns="http://www.w3.org/2000/svg" xmlns:xlink="http://www.w3.org/1999/xlink">
    <!-- Generator: Sketch 46 (44423) - http://www.bohemiancoding.com/sketch -->
    <title>Group 4</title>
    <desc>Created with Sketch.</desc>
    <defs></defs>
    <g id="Page-1" stroke="none" stroke-width="1" fill="none" fill-rule="evenodd">
        <g id="Desktop" transform="translate(-371.000000, -520.000000)">
            <g id="Group-4" transform="translate(376.000000, 525.000000)">
                <circle id="Oval" stroke="#E9B242" stroke-width="10" cx="55" cy="55" r="55"></circle>
                <g id="layers-(1)" transform="translate(25.000000, 29.000000)" fill-rule="nonzero" fill="#005092">
                    <path d="M59.8830409,26.6667836 C59.8830409,25.4011696 59.179883,24.2631579 58.0474854,23.6962573 L53.5887719,21.4669006 L58.0474854,19.2376608 C58.0476023,19.2375439 58.0479532,19.2374269 58.0479532,19.2374269 C59.180117,18.6707602 59.8832749,17.5326316 59.8832749,16.2670175 C59.8832749,15.0016374 59.18,13.8635088 58.0477193,13.2966082 L32.8760234,0.711111111 C31.0383626,-0.206900585 28.8444444,-0.206900585 27.0064327,0.71122807 L1.83520468,13.297193 C0.703274854,13.8636257 -2.69590295e-15,15.0016374 -2.69590295e-15,16.2671345 C-2.69590295e-15,17.5327485 0.703157895,18.6707602 1.83555556,19.2376608 L6.29415205,21.4669006 L1.83497076,23.6964912 C0.703157895,24.2631579 -2.69590295e-15,25.4011696 -2.69590295e-15,26.6667836 C-2.69590295e-15,27.9323977 0.703157895,29.0704094 1.83555556,29.637193 L6.29415205,31.8665497 L1.83590643,34.0956725 C0.704093567,34.6611696 0.000467836257,35.7988304 -2.69590295e-15,37.0645614 C-0.000467836257,38.3309942 0.702690058,39.4697076 1.83555556,40.0367251 L27.0069006,52.6224561 C27.925731,53.0815205 28.9333333,53.3108772 29.9414035,53.3108772 C30.9494737,53.3108772 31.9575439,53.0812865 32.8764912,52.6223392 L58.0478363,40.0366082 C59.1802339,39.4699415 59.8835088,38.3311111 59.8830409,37.0646784 C59.8825731,35.7989474 59.1789474,34.6612865 58.0474854,34.0961404 L53.5887719,31.8667836 L58.0479532,29.637193 C59.179883,29.0704094 59.8830409,27.9323977 59.8830409,26.6667836 Z M3.06725146,16.7755556 C2.79368421,16.6385965 2.75298246,16.3982456 2.75298246,16.2672515 C2.75298246,16.1362573 2.79391813,15.8959064 3.06678363,15.7592982 L28.2373099,3.17403509 C28.7709942,2.90736842 29.3563743,2.77426901 29.9417544,2.77426901 C30.5269006,2.77426901 31.1121637,2.90748538 31.6454971,3.17391813 L56.8159064,15.7590643 C57.0892398,15.8959064 57.1301754,16.1362573 57.1301754,16.2672515 C57.1301754,16.3982456 57.0894737,16.6385965 56.8159064,16.7755556 L31.645848,29.3604678 C30.5785965,29.8935673 29.3044444,29.8935673 28.2377778,29.3605848 L3.06725146,16.7755556 Z M56.8167251,36.5584795 C57.0892398,36.6946199 57.1300585,36.9345029 57.1300585,37.065614 C57.1301754,37.1969591 57.0893567,37.4377778 56.8162573,37.574386 L31.645731,50.1596491 C30.5784795,50.6927485 29.3043275,50.6928655 28.2376608,50.1597661 L3.06725146,37.5745029 C2.79368421,37.4375439 2.7528655,37.1968421 2.75298246,37.0654971 C2.75298246,36.9346199 2.79368421,36.6946199 3.06678363,36.5582456 L9.3722807,33.4054971 L27.0069006,42.2226901 C27.925731,42.6817544 28.9333333,42.9111111 29.9412865,42.9111111 C30.9493567,42.9111111 31.9574269,42.6815205 32.8763743,42.2225731 L50.5105263,33.4054971 L56.8167251,36.5584795 Z M56.8161404,27.1748538 L31.645731,39.760117 C30.5784795,40.2932164 29.3043275,40.2933333 28.2376608,39.7602339 L3.06725146,27.1750877 C2.79368421,27.0382456 2.75298246,26.7978947 2.75298246,26.6669006 C2.75298246,26.5356725 2.79368421,26.2955556 3.06678363,26.1588304 L9.3722807,23.0060819 L27.0069006,31.8232749 C27.925614,32.2823392 28.9334503,32.5116959 29.9412865,32.5116959 C30.9491228,32.5116959 31.9573099,32.2822222 32.8762573,31.8230409 L50.5106433,23.0059649 L56.8156725,26.1584795 C57.0892398,26.2954386 57.1299415,26.5356725 57.1299415,26.6667836 C57.1300585,26.7977778 57.0892398,27.0381287 56.8161404,27.1748538 Z" id="Shape"></path>
                </g>
            </g>
        </g>
    </g>
</svg>