<?xml version="1.0" encoding="UTF-8"?>
<svg width="120px" height="120px" viewBox="0 0 120 120" version="1.1" xmlns="http://www.w3.org/2000/svg" xmlns:xlink="http://www.w3.org/1999/xlink">
    <!-- Generator: Sketch 46 (44423) - http://www.bohemiancoding.com/sketch -->
    <title>Group 2</title>
    <desc>Created with Sketch.</desc>
    <defs></defs>
    <g id="Page-1" stroke="none" stroke-width="1" fill="none" fill-rule="evenodd">
        <g id="Desktop" transform="translate(-51.000000, -520.000000)">
            <g id="Group-2" transform="translate(56.000000, 525.000000)">
                <circle id="Oval" stroke="#E9B242" stroke-width="10" cx="55" cy="55" r="55"></circle>
                <g id="idea-(2)" transform="translate(24.000000, 26.000000)" fill-rule="nonzero" fill="#005092">
                    <path d="M6.57106599,19 L1.42893401,19 C0.639709275,19 0,19.6715243 0,20.5 C0,21.3284757 0.639709275,22 1.42893401,22 L6.57095062,22 C7.36029072,22 8,21.3284757 8,20.5 C8,19.6715243 7.36029072,19 6.57106599,19 Z" id="Shape"></path>
                    <path d="M58.571066,19 L53.428934,19 C52.6398246,19 52,19.6715243 52,20.5 C52,21.3284757 52.6398246,22 53.428934,22 L58.571066,22 C59.3601754,22 60,21.3284757 60,20.5 C60,19.6715243 59.3601754,19 58.571066,19 Z" id="Shape"></path>
                    <path d="M12.5559864,38.4440117 C11.9639682,37.8519961 11.004157,37.8519961 10.4120164,38.4440117 L6.44401364,42.4119971 C5.85199545,43.0040127 5.85199545,43.9638197 6.44401364,44.5559577 C6.74008393,44.8520267 7.12807186,45 7.5159374,45 C7.90380295,45 8.29191328,44.8520267 8.58786117,44.5559577 L12.5559864,40.5879723 C13.1480045,39.996079 13.1480045,39.0361497 12.5559864,38.4440117 Z" id="Shape"></path>
                    <path d="M50.5490854,0.451030367 C49.9475966,-0.150343456 48.9728814,-0.150343456 48.3712683,0.451030367 L44.4510234,4.37133621 C43.8496589,4.97271004 43.8496589,5.94781338 44.4510234,6.54906288 C44.7518921,6.8495633 45.1460053,7 45.5399941,7 C45.9342316,7 46.3280961,6.8495633 46.6288405,6.54893855 L50.5489611,2.62875703 C51.1503256,2.02738321 51.1503256,1.05227986 50.5490854,0.451030367 Z" id="Shape"></path>
                    <path d="M15.5489492,4.37019254 L11.6296345,0.450976038 C11.0280884,-0.150325346 10.0527057,-0.150325346 9.45115958,0.450976038 C8.84961347,1.05252615 8.84961347,2.02791534 9.45115958,2.62946546 L13.3704743,6.54880632 C13.6713096,6.8495192 14.0655418,7 14.4596496,7 C14.8537574,7 15.248114,6.8495192 15.5488249,6.54880632 C16.150371,5.94725621 16.150371,4.97186702 15.5489492,4.37019254 Z" id="Shape"></path>
                    <path d="M53.5550528,42.4068407 L49.593425,38.4449231 C49.0000394,37.8516719 48.0384555,37.8516719 47.4449472,38.4450458 C46.8516843,39.038297 46.8516843,40.00023 47.4449472,40.5933586 L51.4066976,44.5550309 C51.7033904,44.8517178 52.0921941,45 52.4808752,45 C52.8698016,45 53.25836,44.8515952 53.5550528,44.5550309 C54.1483157,43.9619023 54.1483157,42.9999693 53.5550528,42.4068407 Z" id="Shape"></path>
                    <path d="M30,4 C20.0747198,4 12,12.5323845 12,23.0202462 C12,27.8960618 13.7288816,33.1443826 16.7435024,37.4194134 C19.0587599,40.7025405 20.2823849,44.3554805 20.2823849,47.9834853 L20.2823849,57.1000311 C20.2823849,58.6990411 21.5702099,60 23.1530771,60 L36.8470388,60 C38.4299059,60 39.717731,58.6990411 39.717731,57.1000311 L39.717731,47.9834853 C39.717731,44.3555976 40.941356,40.7025405 43.2563817,37.4194134 C46.2710025,33.1444997 48,27.8960618 48,23.0202462 C47.9997682,12.5323845 39.9250484,4 30,4 Z M36.8468071,57.1002653 L23.1528453,57.1002653 L23.1528453,55.2036725 L29.9998841,55.2036725 C30.7926503,55.2036725 31.4353461,54.5545394 31.4353461,53.7536881 C31.4353461,52.9528369 30.7926503,52.3037037 29.9998841,52.3037037 L23.1528453,52.3037037 L23.1528453,50.407228 L36.8471547,50.407228 L36.8487771,57.1000311 C36.8486612,57.1002653 36.8480818,57.1002653 36.8468071,57.1002653 Z M27.9870853,30.0478593 L26.0675736,25.9052306 L33.9321947,25.9052306 L32.0129147,30.0478593 C31.937358,30.2109327 31.8925106,30.3868835 31.8805745,30.5664634 L30.7675034,47.5072592 L29.2323807,47.5072592 L28.1193096,30.5664634 C28.1074894,30.3868835 28.0625262,30.2109327 27.9870853,30.0478593 Z M40.9181791,35.7369351 C38.3544651,39.3725492 36.9540003,43.4320607 36.8527172,47.5072592 L33.6445692,47.5072592 L34.7270468,31.0302805 L37.4886916,25.0698447 C37.6968203,24.620778 37.6633296,24.095267 37.3998081,23.6768717 C37.1364026,23.2585934 36.6795856,23.0051447 36.1886987,23.0051447 L23.8109537,23.0051447 C23.3200667,23.0051447 22.8633657,23.2585934 22.5998442,23.6768717 C22.3364386,24.0951499 22.3028321,24.620661 22.5109607,25.0697277 L25.2727214,31.0301634 L26.355199,47.5071421 L23.1468193,47.5071421 C23.0455362,43.4318266 21.6451873,39.3724321 19.0813574,35.736818 C16.4445203,31.9974831 14.8703445,27.2435336 14.8703445,23.0201291 C14.8703445,14.1312774 21.6573551,6.89985179 29.9996523,6.89985179 C38.3419496,6.89985179 45.1289602,14.1312774 45.1289602,23.0201291 C45.129192,27.2437678 43.5550162,31.9977172 40.9181791,35.7369351 Z" id="Shape"></path>
                </g>
            </g>
        </g>
    </g>
</svg>