<?xml version="1.0" encoding="UTF-8"?>
<svg width="120px" height="169px" viewBox="0 0 120 169" version="1.1" xmlns="http://www.w3.org/2000/svg" xmlns:xlink="http://www.w3.org/1999/xlink">
    <!-- Generator: Sketch 46 (44423) - http://www.bohemiancoding.com/sketch -->
    <title>Group 3</title>
    <desc>Created with Sketch.</desc>
    <defs></defs>
    <g id="Page-1" stroke="none" stroke-width="1" fill="none" fill-rule="evenodd">
        <g id="Desktop" transform="translate(-211.000000, -520.000000)">
            <g id="Group-3" transform="translate(216.000000, 525.000000)">
                <circle id="Oval" stroke="#0D73E0" stroke-width="10" cx="55" cy="55" r="55"></circle>
                <text id="RESEARCH" font-family="NewsGothicMT-Bold, News Gothic MT" font-size="18" font-weight="bold" fill="#005092">
                    <tspan x="5.07128906" y="163">RESEARCH</tspan>
                </text>
                <g id="loupe" transform="translate(26.000000, 26.000000)" fill-rule="nonzero" fill="#005092">
                    <path d="M53.6252344,6.36972656 C45.1388672,-2.11652344 31.3308984,-2.11652344 22.8446484,6.36972656 C18.7335937,10.4805469 16.4697656,15.9464062 16.4697656,21.7600781 C16.4697656,27.0561328 18.3493359,32.0628516 21.7916016,36.0203906 L19.1995312,38.6124609 L16.5578906,35.9708203 C16.2684375,35.6813672 15.8757422,35.5187109 15.4664062,35.5187109 C15.0570703,35.5187109 14.664375,35.6813672 14.3749219,35.9708203 L1.99863281,48.3472266 C0.709804688,49.6358203 0,51.3492187 0,53.1718359 C0,54.9943359 0.709804688,56.7078516 1.99839844,57.9964453 C3.28722656,59.2852734 5.000625,59.9949609 6.82300781,59.9949609 C8.64539063,59.9949609 10.3590234,59.2851562 11.6476172,57.9965625 L24.0240234,45.6203906 C24.3134766,45.3309375 24.4761328,44.9382422 24.4761328,44.5289062 C24.4761328,44.1195703 24.3134766,43.726875 24.0240234,43.4374219 L21.3823828,40.7957812 L23.9752734,38.2028906 C28.0525781,41.7437109 33.1433203,43.5151172 38.2348828,43.5151172 C43.8084375,43.5151172 49.3821094,41.3935547 53.6252344,37.1505469 C57.7359375,33.0396094 60,27.5739844 60,21.7603125 C60,15.9462891 57.7361719,10.4805469 53.6252344,6.36972656 Z M9.46464844,55.8134766 C8.7590625,56.5190625 7.82097656,56.9076562 6.82300781,56.9076562 C5.82515625,56.9076562 4.88695312,56.5189453 4.18136719,55.8133594 C3.47589844,55.1078906 3.0871875,54.1696875 3.0871875,53.1719531 C3.0871875,52.1742187 3.47589844,51.2358984 4.18148437,50.5303125 L11.0878125,43.6239844 L16.3710938,48.9070312 L9.46464844,55.8134766 Z M18.5542969,46.7239453 L13.2710156,41.4406641 L15.4664063,39.2452734 L20.7496875,44.5286719 L18.5542969,46.7239453 Z M51.4421484,34.9673437 C44.1596484,42.2500781 32.3102344,42.2500781 25.0277344,34.9673437 C21.4999219,31.4395312 19.5570703,26.7492187 19.5570703,21.7600781 C19.5570703,16.7709375 21.4999219,12.080625 25.0277344,8.55292969 C28.6689844,4.91167969 33.4519922,3.0909375 38.235,3.0909375 C43.0178906,3.0909375 47.8010156,4.91144531 51.4422656,8.55292969 C54.9700781,12.080625 56.9129297,16.7710547 56.9129297,21.7600781 C56.9129297,26.7491016 54.9699609,31.4395312 51.4421484,34.9673437 Z" id="Shape"></path>
                    <path d="M48.8946094,11.1001172 C43.0167187,5.22246094 33.4529297,5.22222656 27.5750391,11.1001172 C21.6973828,16.9780078 21.6973828,26.5417969 27.5751562,32.4196875 C30.5141016,35.3583984 34.374375,36.8279297 38.2348828,36.8279297 C42.0953906,36.8279297 45.9557812,35.3583984 48.8947266,32.4196875 L48.8947266,32.4195703 C54.7723828,26.5419141 54.7723828,16.9780078 48.8946094,11.1001172 Z M46.7115234,30.2367187 C42.0373828,34.9108594 34.4322656,34.9108594 29.758125,30.2368359 C25.0839844,25.5626953 25.0839844,17.9574609 29.7580078,13.2833203 C32.0953125,10.9458984 35.1645703,9.77777344 38.2348828,9.77777344 C41.304375,9.77777344 44.3748047,10.9466016 46.7115234,13.2833203 C51.3856641,17.9573437 51.3856641,25.5625781 46.7115234,30.2367187 Z" id="Shape"></path>
                    <path d="M43.9829297,16.0120312 C40.8132422,12.8426953 35.6564062,12.8426953 32.4868359,16.0120312 C31.8840234,16.6148437 31.8840234,17.5921875 32.4868359,18.1952344 C33.0896484,18.7980469 34.0669922,18.7980469 34.6700391,18.1952344 C36.6355078,16.2295312 39.8342578,16.2295312 41.7999609,18.1952344 C42.1014844,18.4967578 42.4964062,18.6473437 42.8914453,18.6473437 C43.2864844,18.6473437 43.6816406,18.4966406 43.9829297,18.1952344 C44.5857422,17.5924219 44.5857422,16.6149609 43.9829297,16.0120312 Z" id="Shape"></path>
                </g>
            </g>
        </g>
    </g>
</svg>