<?xml version="1.0" encoding="utf-8"?>
<!-- Generator: Adobe Illustrator 21.1.0, SVG Export Plug-In . SVG Version: 6.00 Build 0)  -->
<svg version="1.1" id="Layer_1" xmlns="http://www.w3.org/2000/svg" xmlns:xlink="http://www.w3.org/1999/xlink" x="0px" y="0px"
	 viewBox="0 0 120 169" style="enable-background:new 0 0 120 169;" xml:space="preserve">
<style type="text/css">
	.st0{fill:none;stroke:#FFFFFF;stroke-width:10;}
	.st1{fill:#FFFFFF;}
	.st2{font-family:'NewsGothicMT-Bold';}
	.st3{font-size:18px;}
</style>
<title>Group 3</title>
<desc>Created with Sketch.</desc>
<circle id="Oval" class="st0" cx="60" cy="60" r="55"/>
<text transform="matrix(1 0 0 1 10.0713 168)" class="st1 st2 st3">RESEARCH</text>
<g id="loupe" transform="translate(26.000000, 26.000000)">
	<path id="Shape" class="st1" d="M58.6,11.4c-8.5-8.5-22.3-8.5-30.8,0c-4.1,4.1-6.4,9.6-6.4,15.4c0,5.3,1.9,10.3,5.3,14.3l-2.6,2.6
		L21.6,41c-0.3-0.3-0.7-0.5-1.1-0.5c-0.4,0-0.8,0.2-1.1,0.5L7,53.3c-1.3,1.3-2,3-2,4.8C5,60,5.7,61.7,7,63c1.3,1.3,3,2,4.8,2
		s3.5-0.7,4.8-2L29,50.6c0.3-0.3,0.5-0.7,0.5-1.1s-0.2-0.8-0.5-1.1l-2.6-2.6l2.6-2.6c4.1,3.5,9.2,5.3,14.3,5.3
		c5.6,0,11.1-2.1,15.4-6.4C62.7,38,65,32.6,65,26.8C65,20.9,62.7,15.5,58.6,11.4z M14.5,60.8c-0.7,0.7-1.6,1.1-2.6,1.1
		c-1,0-1.9-0.4-2.6-1.1c-0.7-0.7-1.1-1.6-1.1-2.6c0-1,0.4-1.9,1.1-2.6l6.9-6.9l5.3,5.3L14.5,60.8z M23.6,51.7l-5.3-5.3l2.2-2.2
		l5.3,5.3L23.6,51.7z M56.4,40c-7.3,7.3-19.1,7.3-26.4,0c-3.5-3.5-5.5-8.2-5.5-13.2s1.9-9.7,5.5-13.2c3.6-3.6,8.4-5.5,13.2-5.5
		c4.8,0,9.6,1.8,13.2,5.5c3.5,3.5,5.5,8.2,5.5,13.2S60,36.4,56.4,40z"/>
	<path id="Shape_1_" class="st1" d="M53.9,16.1c-5.9-5.9-15.4-5.9-21.3,0c-5.9,5.9-5.9,15.4,0,21.3c2.9,2.9,6.8,4.4,10.7,4.4
		s7.7-1.5,10.7-4.4v0C59.8,31.5,59.8,22,53.9,16.1z M51.7,35.2c-4.7,4.7-12.3,4.7-17,0c-4.7-4.7-4.7-12.3,0-17
		c2.3-2.3,5.4-3.5,8.5-3.5c3.1,0,6.1,1.2,8.5,3.5C56.4,23,56.4,30.6,51.7,35.2z"/>
	<path id="Shape_2_" class="st1" d="M49,21c-3.2-3.2-8.3-3.2-11.5,0c-0.6,0.6-0.6,1.6,0,2.2c0.6,0.6,1.6,0.6,2.2,0c2-2,5.2-2,7.1,0
		c0.3,0.3,0.7,0.5,1.1,0.5s0.8-0.2,1.1-0.5C49.6,22.6,49.6,21.6,49,21z"/>
</g>
</svg>
