<?xml version="1.0" encoding="utf-8"?>
<!-- Generator: Adobe Illustrator 21.1.0, SVG Export Plug-In . SVG Version: 6.00 Build 0)  -->
<svg version="1.1" id="Layer_1" xmlns="http://www.w3.org/2000/svg" xmlns:xlink="http://www.w3.org/1999/xlink" x="0px" y="0px"
	 viewBox="0 0 120 168" style="enable-background:new 0 0 120 168;" xml:space="preserve">
<style type="text/css">
	.st0{fill:none;stroke:#FFFFFF;stroke-width:10;}
	.st1{fill:#FFFFFF;}
	.st2{font-family:'NewsGothicMT-Bold';}
	.st3{font-size:18px;}
</style>
<title>Group 5</title>
<desc>Created with Sketch.</desc>
<circle id="Oval" class="st0" cx="60" cy="60" r="55"/>
<text transform="matrix(1 0 0 1 28.104 168)" class="st1 st2 st3">REVIEW</text>
<g id="user-_x28_1_x29_" transform="translate(32.000000, 24.000000)">
	<path id="Shape" class="st1" d="M41.7,43.9c0,0-6.9,0.2-8-7.2c1.1-0.8,2.2-1.8,3.1-3.1c1.8-2.4,3-5.5,3.4-8.8
		c0.1-0.1,0.3-0.3,0.3-0.5c0.7-1.8,1.1-3.7,1.1-5.6C41.6,11.1,35.9,5,28.9,5c-1.8,0-3.6,0.4-5.3,1.3c-0.6,0-1.3,0.2-1.9,0.3
		c-2.9,0.8-5.2,3-6.6,6c-1.3,3-1.6,6.4-0.7,9.8c0.2,0.7,0.4,1.4,0.7,2.1c0.1,0.2,0.2,0.3,0.3,0.5c0.7,5.2,3.1,9.4,6.5,11.8
		c-1,7.4-7.9,7.2-8,7.2C9,44.1,5,48.1,5,53.1v10.4c0,0.7,0.6,1.3,1.3,1.3h11.8h19.2h11.8c0.7,0,1.3-0.6,1.3-1.3V53.1
		C50.6,48.1,46.6,44.1,41.7,43.9z M22.5,9.2C23,9,23.5,9,24.1,8.9c0.2,0,0.4-0.1,0.6-0.2c1.4-0.7,2.8-1.1,4.3-1.1
		c5.5,0,10,4.9,10,11c0,0.2,0,0.4,0,0.5c-1.1-1.1-2.6-1.8-4.2-1.8h-9.2c-0.5,0-1.1-0.2-1.5-0.5c-0.4-0.3-0.7-0.7-0.8-1.1
		c-0.3-0.7-0.9-1.1-1.6-1c-0.7,0-1.3,0.5-1.5,1.2c-0.5,2-1.6,3.9-3.1,5.5C15.7,16,18.1,10.5,22.5,9.2z M21.4,32.5
		c-1.8-2.1-2.9-5-3.3-8.2c1.7-1.5,3-3.4,3.9-5.5c0.1,0.1,0.3,0.2,0.4,0.3c0.9,0.7,2,1,3.1,1h9.2c1.3,0,2.4,0.8,2.9,1.9c0,0,0,0,0,0
		c0,7.6-4.4,13.8-9.8,13.8C25.4,35.9,23.2,34.7,21.4,32.5z M24.5,38c1.1,0.4,2.2,0.6,3.4,0.6c1.2,0,2.3-0.2,3.4-0.6
		c0.5,2.6,1.9,4.8,3.9,6.4L28,54.5c0,0.1-0.1,0.1-0.2,0.1c-0.1,0-0.1,0-0.2-0.1l-7.1-10.1C22.5,42.8,24,40.6,24.5,38z M47.9,62.2
		H37.4H18.2H7.7v-9.1c0-3.6,2.9-6.6,6.6-6.6c0,0,2.2-0.1,3.9-0.8L25.4,56c0.5,0.8,1.4,1.2,2.4,1.2c0,0,0,0,0,0c1,0,1.8-0.5,2.4-1.2
		l7.2-10.3c2,0.8,3.9,0.8,3.9,0.8c3.6,0,6.6,2.9,6.6,6.6V62.2z"/>
</g>
</svg>
