<?xml version="1.0" encoding="UTF-8"?>
<svg width="120px" height="168px" viewBox="0 0 120 168" version="1.1" xmlns="http://www.w3.org/2000/svg" xmlns:xlink="http://www.w3.org/1999/xlink">
    <!-- Generator: Sketch 46 (44423) - http://www.bohemiancoding.com/sketch -->
    <title>Group 5</title>
    <desc>Created with Sketch.</desc>
    <defs></defs>
    <g id="Page-1" stroke="none" stroke-width="1" fill="none" fill-rule="evenodd">
        <g id="Desktop" transform="translate(-531.000000, -520.000000)">
            <g id="Group-5" transform="translate(536.000000, 525.000000)">
                <circle id="Oval" stroke="#0D73E0" stroke-width="10" cx="55" cy="55" r="55"></circle>
                <text id="REVIEW" font-family="NewsGothicMT-Bold, News Gothic MT" font-size="18" font-weight="bold" fill="#005092">
                    <tspan x="23.1040039" y="163">REVIEW</tspan>
                </text>
                <g id="user-(1)" transform="translate(32.000000, 24.000000)" fill-rule="nonzero" fill="#005092">
                    <path d="M36.6608187,38.8845614 C36.6132164,38.8794152 29.72,39.082807 28.6950877,31.6959064 C29.8339181,30.9012865 30.8835088,29.8697076 31.8081871,28.6180117 C33.6070175,26.182924 34.7660819,23.1281871 35.1789474,19.8239766 C35.3208187,19.6956725 35.4382456,19.5360234 35.5173099,19.3478363 C36.2643275,17.5683041 36.6431579,15.6681871 36.6431579,13.7 C36.6431579,6.14584795 30.9447953,0 23.940117,0 C22.1081871,0 20.3308772,0.421988304 18.6522807,1.25532164 C18.0119298,1.30421053 17.3844444,1.41684211 16.7826901,1.59064327 C13.905848,2.42187135 11.5647953,4.5548538 10.1906433,7.59695906 C8.85660819,10.5506433 8.59368421,14.0277193 9.45052632,17.3878363 C9.63157895,18.0976608 9.86175439,18.7952047 10.1347368,19.4616374 C10.208655,19.6418713 10.3188304,19.7956725 10.4511111,19.9222222 C11.119883,25.0795322 13.5738012,29.3526316 16.9197661,31.685614 C15.8916959,39.0850292 9.00093567,38.8796491 8.95345029,38.8847953 C3.99649123,39.0529825 0.0148538012,43.1352047 0.0148538012,48.1323977 L0.0148538012,58.5348538 C0.0148538012,59.2795322 0.618479532,59.8831579 1.36315789,59.8831579 L13.2030409,59.8831579 L32.4108772,59.8831579 L44.2509942,59.8831579 C44.9955556,59.8831579 45.5994152,59.2795322 45.5994152,58.5348538 L45.5994152,48.1323977 C45.5992982,43.1349708 41.6180117,39.0526316 36.6608187,38.8845614 Z M17.531345,4.18140351 C18.0233918,4.03918129 18.5430409,3.9548538 19.0759064,3.93087719 C19.2736842,3.9219883 19.4670175,3.8697076 19.6423392,3.77754386 C21.0073684,3.06035088 22.4534503,2.69672515 23.9402339,2.69672515 C29.4576608,2.69672515 33.9465497,7.63274854 33.9465497,13.7 C33.9465497,13.8821053 33.9414035,14.0632749 33.9334503,14.2437427 C32.8632749,13.1569591 31.3763743,12.4815205 29.734386,12.4815205 L20.5447953,12.4815205 C19.9980117,12.4815205 19.4790643,12.3098246 19.0438596,11.9849123 C18.6722807,11.7076023 18.3850292,11.3348538 18.2134503,10.9070175 C17.9477193,10.2452632 17.2925146,9.83134503 16.5792982,9.87614035 C15.8635088,9.92175439 15.2611696,10.4188304 15.0803509,11.1134503 C14.5478363,13.1597661 13.4859649,15.0446784 12.0291228,16.5732164 C10.6735673,10.994386 13.12,5.45590643 17.531345,4.18140351 Z M16.3582456,27.5017544 C14.6037427,25.3583626 13.4547368,22.4639766 13.0905263,19.2952047 C14.7919298,17.7788304 16.1369591,15.8918129 17.0126316,13.7987135 C17.1454971,13.9212865 17.2850292,14.037193 17.4307602,14.1460819 C18.3355556,14.8212865 19.4122807,15.1783626 20.5449123,15.1783626 L29.7345029,15.1783626 C31.0347368,15.1783626 32.1554386,15.9582456 32.6555556,17.074386 C32.6554386,17.0839766 32.6540351,17.0930994 32.6540351,17.1026901 C32.6540351,24.714152 28.2376608,30.9065497 22.8091228,30.9065497 C20.4465497,30.9066667 18.1554386,29.6974269 16.3582456,27.5017544 Z M19.4563743,33.0097076 C20.5252632,33.3964912 21.6495906,33.6033918 22.8091228,33.6033918 C23.9594152,33.6033918 25.0832749,33.4031579 26.1591813,33.0168421 C26.6528655,35.5888889 28.082924,37.8306433 30.0804678,39.3739181 L23.0003509,49.4567251 C22.954152,49.5225731 22.8899415,49.5559064 22.8094737,49.5559064 C22.7291228,49.5559064 22.6649123,49.5224561 22.6188304,49.4568421 L15.5369591,39.3716959 C17.5346199,37.8266667 18.9642105,35.5832749 19.4563743,33.0097076 Z M42.9025731,57.1863158 L32.4108772,57.1863158 L13.2030409,57.1863158 L2.71146199,57.1863158 L2.71146199,48.1321637 C2.71146199,44.5155556 5.65380117,41.5732164 9.27040936,41.5732164 C9.31953216,41.5732164 11.4892398,41.5204678 13.2036257,40.7414035 L20.4116959,51.0064327 C20.9595322,51.7867836 21.8559064,52.2526316 22.8093567,52.2526316 C22.8093567,52.2526316 22.8093567,52.2526316 22.8094737,52.2526316 C23.762807,52.2526316 24.6592982,51.7867836 25.2071345,51.0064327 L32.4139181,40.7430409 C34.3691228,41.5733333 36.2946199,41.5733333 36.3437427,41.5733333 C39.9603509,41.5733333 42.9025731,44.5156725 42.9025731,48.1322807 L42.9025731,57.1863158 Z" id="Shape"></path>
                </g>
            </g>
        </g>
    </g>
</svg>