<?xml version="1.0" encoding="UTF-8"?>
<svg width="120px" height="168px" viewBox="0 0 120 168" version="1.1" xmlns="http://www.w3.org/2000/svg" xmlns:xlink="http://www.w3.org/1999/xlink">
    <!-- Generator: Sketch 46 (44423) - http://www.bohemiancoding.com/sketch -->
    <title>Group 7</title>
    <desc>Created with Sketch.</desc>
    <defs></defs>
    <g id="Page-1" stroke="none" stroke-width="1" fill="none" fill-rule="evenodd">
        <g id="Desktop" transform="translate(-851.000000, -520.000000)">
            <g id="Group-7" transform="translate(856.000000, 525.000000)">
                <circle id="Oval" stroke="#0D73E0" stroke-width="10" cx="55" cy="55" r="55"></circle>
                <text id="RENDER" font-family="NewsGothicMT-Bold, News Gothic MT" font-size="18" font-weight="bold" fill="#005092">
                    <tspan x="20.3168945" y="163">RENDER</tspan>
                </text>
                <g id="smartphone-(1)" transform="translate(37.000000, 24.000000)" fill-rule="nonzero" fill="#005092">
                    <path d="M18.0471094,48.9999609 C16.2117187,48.9999609 14.7185156,50.4930469 14.7185156,52.3284375 C14.7185156,54.1638281 16.2117187,55.6569141 18.0471094,55.6569141 C19.8825,55.6569141 21.3755859,54.1638281 21.3755859,52.3284375 C21.3755859,50.4930469 19.8823828,48.9999609 18.0471094,48.9999609 Z M18.0471094,53.3518359 C17.4827344,53.3518359 17.0235937,52.8926953 17.0235937,52.3284375 C17.0235937,51.7641797 17.4827344,51.3050391 18.0471094,51.3050391 C18.6113672,51.3050391 19.0705078,51.7641797 19.0705078,52.3284375 C19.0702734,52.8926953 18.6111328,53.3518359 18.0471094,53.3518359 Z" id="Shape"></path>
                    <path d="M23.5062891,4.73988281 L17.5996875,4.73988281 C16.9277344,4.73988281 16.3830469,5.28457031 16.3830469,5.95652344 C16.3830469,6.62847656 16.9278516,7.17316406 17.5996875,7.17316406 L23.5062891,7.17316406 C24.1782422,7.17316406 24.7229297,6.62847656 24.7229297,5.95652344 C24.7229297,5.28457031 24.1782422,4.73988281 23.5062891,4.73988281 Z" id="Shape"></path>
                    <circle id="Oval" cx="13.8646875" cy="5.98652344" r="1.27722656"></circle>
                    <path d="M32.2383984,0 L3.85535156,0 C1.73695313,0 0.0134765625,1.72347656 0.0134765625,3.841875 L0.0134765625,56.1580078 C0.0134765625,58.2764063 1.73695313,59.9998828 3.85535156,59.9998828 L32.2382813,59.9998828 C34.3566797,59.9998828 36.0801563,58.2764063 36.0801563,56.1580078 L36.0801563,3.841875 C36.0802734,1.72347656 34.3567969,0 32.2383984,0 Z M33.5190234,56.158125 C33.5190234,56.8642969 32.9445703,57.43875 32.2383984,57.43875 L3.85535156,57.43875 C3.14917969,57.43875 2.57472656,56.8642969 2.57472656,56.158125 L2.57472656,3.841875 C2.57472656,3.13570313 3.14917969,2.56125 3.85535156,2.56125 L32.2382812,2.56125 C32.9444531,2.56125 33.5189063,3.13570313 33.5189063,3.841875 L33.5189063,56.158125 L33.5190234,56.158125 Z" id="Shape"></path>
                    <path d="M20.2052344,24.0473438 C19.7049609,23.5474219 18.894375,23.5474219 18.3939844,24.0473438 L12.2423437,30.1991016 C11.7423047,30.6991406 11.7423047,31.5100781 12.2424609,32.0102344 C12.4925391,32.2603125 12.8203125,32.3854688 13.1479688,32.3854688 C13.475625,32.3854688 13.8035156,32.2603125 14.0534766,32.0103516 L20.2051172,25.8585938 C20.7052734,25.3584375 20.7052734,24.5475 20.2052344,24.0473438 Z" id="Shape"></path>
                    <path d="M23.8514063,27.6124219 C23.35125,27.1125 22.5405469,27.1125 22.0401562,27.6124219 L19.5895313,30.0630469 C19.0896094,30.5630859 19.0896094,31.3740234 19.5896484,31.8742969 C19.8397266,32.1242578 20.1675,32.2494141 20.4951562,32.2494141 C20.8228125,32.2494141 21.1505859,32.1242578 21.4006641,31.8742969 L23.8512891,29.4236719 C24.3515625,28.9235156 24.3515625,28.1125781 23.8514063,27.6124219 Z" id="Shape"></path>
                    <path d="M29.6913281,9.47953125 L6.40265625,9.47953125 C5.76609375,9.47953125 5.25011719,9.99550781 5.25011719,10.6320703 L5.25011719,45.9377344 C5.25011719,46.5742969 5.76609375,47.0902734 6.40265625,47.0902734 L29.6913281,47.0902734 C30.3278906,47.0902734 30.8438672,46.5742969 30.8438672,45.9377344 L30.8438672,10.6320703 C30.8438672,9.995625 30.3278906,9.47953125 29.6913281,9.47953125 Z M28.5386719,44.7851953 L28.5386719,44.7851953 L7.55507812,44.7851953 L7.55507812,11.7847266 L28.5386719,11.7847266 L28.5386719,44.7851953 Z" id="Shape"></path>
                </g>
            </g>
        </g>
    </g>
</svg>