<?xml version="1.0" encoding="utf-8"?>
<!-- Generator: Adobe Illustrator 21.1.0, SVG Export Plug-In . SVG Version: 6.00 Build 0)  -->
<svg version="1.1" id="Layer_1" xmlns="http://www.w3.org/2000/svg" xmlns:xlink="http://www.w3.org/1999/xlink" x="0px" y="0px"
	 viewBox="0 0 120 168" style="enable-background:new 0 0 120 168;" xml:space="preserve">
<style type="text/css">
	.st0{fill:none;stroke:#FFFFFF;stroke-width:10;}
	.st1{fill:#FFFFFF;}
	.st2{font-family:'NewsGothicMT-Bold';}
	.st3{font-size:18px;}
</style>
<title>Group 7</title>
<desc>Created with Sketch.</desc>
<circle id="Oval" class="st0" cx="60" cy="60" r="55"/>
<text transform="matrix(1 0 0 1 25.3169 168)" class="st1 st2 st3">RENDER</text>
<g id="smartphone-_x28_1_x29_" transform="translate(37.000000, 24.000000)">
	<path id="Shape" class="st1" d="M23,54c-1.8,0-3.3,1.5-3.3,3.3s1.5,3.3,3.3,3.3s3.3-1.5,3.3-3.3S24.9,54,23,54z M23,58.4
		c-0.6,0-1-0.5-1-1s0.5-1,1-1c0.6,0,1,0.5,1,1C24.1,57.9,23.6,58.4,23,58.4z"/>
	<path id="Shape_1_" class="st1" d="M28.5,9.7h-5.9c-0.7,0-1.2,0.5-1.2,1.2s0.5,1.2,1.2,1.2h5.9c0.7,0,1.2-0.5,1.2-1.2
		S29.2,9.7,28.5,9.7z"/>
	<circle id="Oval_1_" class="st1" cx="18.9" cy="11" r="1.3"/>
	<path id="Shape_2_" class="st1" d="M37.2,5H8.9C6.7,5,5,6.7,5,8.8v52.3C5,63.3,6.7,65,8.9,65h28.4c2.1,0,3.8-1.7,3.8-3.8V8.8
		C41.1,6.7,39.4,5,37.2,5z M38.5,61.2c0,0.7-0.6,1.3-1.3,1.3H8.9c-0.7,0-1.3-0.6-1.3-1.3V8.8c0-0.7,0.6-1.3,1.3-1.3h28.4
		c0.7,0,1.3,0.6,1.3,1.3L38.5,61.2L38.5,61.2z"/>
	<path id="Shape_3_" class="st1" d="M25.2,29c-0.5-0.5-1.3-0.5-1.8,0l-6.2,6.2c-0.5,0.5-0.5,1.3,0,1.8c0.3,0.3,0.6,0.4,0.9,0.4
		s0.7-0.1,0.9-0.4l6.2-6.2C25.7,30.4,25.7,29.5,25.2,29z"/>
	<path id="Shape_4_" class="st1" d="M28.9,32.6c-0.5-0.5-1.3-0.5-1.8,0l-2.5,2.5c-0.5,0.5-0.5,1.3,0,1.8c0.3,0.2,0.6,0.4,0.9,0.4
		c0.3,0,0.7-0.1,0.9-0.4l2.5-2.5C29.4,33.9,29.4,33.1,28.9,32.6z"/>
	<path id="Shape_5_" class="st1" d="M34.7,14.5H11.4c-0.6,0-1.2,0.5-1.2,1.2v35.3c0,0.6,0.5,1.2,1.2,1.2h23.3c0.6,0,1.2-0.5,1.2-1.2
		V15.6C35.8,15,35.3,14.5,34.7,14.5z M33.5,49.8L33.5,49.8h-21v-33h21V49.8z"/>
</g>
</svg>
